<svg viewBox="0 0 730 739" version="1.1" xmlns="http://www.w3.org/2000/svg" xmlns:xlink="http://www.w3.org/1999/xlink">
    <g id="Main" stroke="none" stroke-width="1" fill="none" fill-rule="evenodd" opacity="0.593981062">
        <path d="M316.211106,721.299771 C252.790106,688.352771 178.661106,632.487771 114.980106,565.317771 C51.2881063,498.136771 -1.83799372,419.767771 -23.4203937,341.849771 C-44.9812637,264.009771 -35.0643367,186.672771 27.2427063,121.181771 C89.6471063,55.5890713 204.777106,1.68957131 394.104106,-28.6609387 C468.645106,-40.6104587 519.477106,-24.7237487 553.622106,8.31217131 C587.839106,41.4185713 605.559106,91.9917713 613.281106,149.942771 C626.435106,248.648771 610.505106,367.966771 598.649106,456.769771 C596.581106,472.264771 594.636106,486.830771 592.992106,500.195771 C577.519106,625.945771 533.418106,694.210771 480.877106,724.569771 C428.335106,754.929771 366.911106,747.637771 316.211106,721.299771 Z" id="Path" stroke="#a54ea2" stroke-width="2" transform="translate(292.227257, 355.879067) rotate(55.000000) translate(-292.227257, -355.879067) "></path>
    </g>
</svg>