<?xml version="1.0" encoding="utf-8"?>
<!-- Generator: Adobe Illustrator 24.2.3, SVG Export Plug-In . SVG Version: 6.00 Build 0)  -->
<svg version="1.1" id="Layer_1" xmlns="http://www.w3.org/2000/svg" xmlns:xlink="http://www.w3.org/1999/xlink" x="0px" y="0px"
	 viewBox="0 0 400.21 99.34" style="enable-background:new 0 0 400.21 99.34;" xml:space="preserve">
<style type="text/css">
	.st0{fill-rule:evenodd;clip-rule:evenodd;fill:#ffffff;}
	.st1{fill-rule:evenodd;clip-rule:evenodd;fill:#ffffff;}
	.st2{fill:#ffffff;}
</style>
<g id="XMLID_2_">
</g>
<g>
	<path id="XMLID_79_" class="st0" d="M58.75,61.24l0.05-41.58L45.75,42.56c-2.11-1.63-4.24-3.26-6.36-4.89L58.18,4.7h8.6L66.7,70.89
		h-8.44L34.73,52.81l0,0L15.54,38.06l-0.05,41.58l13.05-22.91l2.55,1.97l0,0l3.81,2.92L16.08,94.64H7.5L7.59,30v-1.6H16
		C30.24,39.35,44.5,50.29,58.75,61.24z"/>
	<path id="XMLID_76_" class="st1" d="M54.56,61.24l0.05-41.58L41.57,42.56c-2.11-1.63-4.24-3.26-6.36-4.89L53.99,4.7h8.6l-0.08,64.6
		l-0.01,1.59h-8.44L30.54,52.81l0,0L11.35,38.06L11.3,79.64l13.05-22.91l2.55,1.97l0,0l3.81,2.92L11.9,94.64H3.31L3.4,30v-1.6h8.41
		C26.06,39.35,40.31,50.29,54.56,61.24z"/>
	<g id="XMLID_4_">
		<g>
			<path id="XMLID_294_" class="st2" d="M122.88,25.07h7.23v38.39h-4.49v0.05l-20.15-25.9v25.85h-7.23V25.13h5.86l18.78,23.77V25.07
				z"/>
			<path id="XMLID_291_" class="st2" d="M163.07,49.99c0,7.78-5.31,14.07-14.07,14.07c-8.76,0-14.02-6.3-14.02-14.07
				c0-7.72,5.37-14.07,13.96-14.07C157.54,35.92,163.07,42.27,163.07,49.99z M141.66,49.99c0,4.11,2.46,7.94,7.34,7.94
				s7.34-3.83,7.34-7.94c0-4.05-2.85-8-7.34-8C144.18,41.99,141.66,45.94,141.66,49.99z"/>
			<path id="XMLID_289_" class="st2" d="M187.55,63.46V49.33c0-4.11-2.25-7.23-6.52-7.23c-4.11,0-6.9,3.45-6.9,7.56v13.8h-6.63
				V36.41h5.97l0.44,3.67c2.74-2.68,5.48-4.05,8.87-4.05c6.35,0,11.45,4.76,11.45,13.25v14.18H187.55z"/>
			<path id="XMLID_287_" class="st2" d="M217.61,43.64c-1.92-1.81-4.11-2.41-6.68-2.41c-3.18,0-4.93,0.99-4.93,2.68
				c0,1.75,1.59,2.74,5.04,2.96c5.09,0.33,11.55,1.48,11.55,8.65c0,4.76-3.89,8.87-11.61,8.87c-4.27,0-8.54-0.71-12.49-4.82
				l3.29-4.76c1.92,2.14,6.3,3.72,9.31,3.78c2.52,0.05,4.87-1.26,4.87-3.23c0-1.86-1.53-2.63-5.37-2.85
				c-5.09-0.38-11.17-2.25-11.17-8.38c0-6.24,6.46-8.43,11.39-8.43c4.22,0,7.39,0.82,10.51,3.56L217.61,43.64z"/>
			<path id="XMLID_284_" class="st2" d="M232.56,52.34c0.44,3.34,3.34,5.75,8.05,5.75c2.46,0,5.7-0.93,7.23-2.52l4.27,4.22
				c-2.85,2.96-7.5,4.38-11.61,4.38c-9.31,0-14.84-5.75-14.84-14.4c0-8.21,5.59-14.13,14.35-14.13c9.04,0,14.68,5.59,13.64,16.7
				H232.56z M247.24,46.81c-0.44-3.5-3.18-5.26-7.01-5.26c-3.61,0-6.57,1.75-7.56,5.26H247.24z"/>
			<path id="XMLID_282_" class="st2" d="M278.67,63.46V49.33c0-4.11-2.25-7.23-6.52-7.23c-4.11,0-6.9,3.45-6.9,7.56v13.8h-6.63
				V36.41h5.97l0.44,3.67c2.74-2.68,5.48-4.05,8.87-4.05c6.35,0,11.45,4.76,11.45,13.25v14.18H278.67z"/>
			<path id="XMLID_280_" class="st2" d="M308.73,43.64c-1.92-1.81-4.11-2.41-6.68-2.41c-3.18,0-4.93,0.99-4.93,2.68
				c0,1.75,1.59,2.74,5.04,2.96c5.09,0.33,11.55,1.48,11.55,8.65c0,4.76-3.89,8.87-11.61,8.87c-4.27,0-8.54-0.71-12.49-4.82
				l3.29-4.76c1.92,2.14,6.3,3.72,9.31,3.78c2.52,0.05,4.87-1.26,4.87-3.23c0-1.86-1.53-2.63-5.37-2.85
				c-5.09-0.38-11.17-2.25-11.17-8.38c0-6.24,6.46-8.43,11.39-8.43c4.22,0,7.39,0.82,10.51,3.56L308.73,43.64z"/>
			<path id="XMLID_277_" class="st2" d="M325.27,28.85c0,5.2-7.89,5.2-7.89,0S325.27,23.65,325.27,28.85z M317.98,36.35v27.11h6.68
				V36.35H317.98z"/>
			<path id="XMLID_275_" class="st2" d="M353.85,60.01c-3.12,3.07-6.41,4.27-10.41,4.27c-7.83,0-14.35-4.71-14.35-14.29
				c0-9.58,6.52-14.29,14.35-14.29c3.83,0,6.79,1.1,9.75,4l-4.22,4.44c-1.59-1.42-3.56-2.14-5.42-2.14c-4.49,0-7.78,3.29-7.78,8
				c0,5.15,3.5,7.89,7.67,7.89c2.14,0,4.27-0.6,5.92-2.25L353.85,60.01z"/>
			<path id="XMLID_272_" class="st2" d="M378.22,36.46h6.41v27h-6.3L378,59.52c-1.53,3.18-5.75,4.71-8.76,4.76
				c-8,0.06-13.91-4.87-13.91-14.35c0-9.31,6.19-14.18,14.07-14.13c3.61,0,7.06,1.7,8.6,4.38L378.22,36.46z M362.01,49.93
				c0,5.15,3.56,8.21,8,8.21c10.51,0,10.51-16.37,0-16.37C365.57,41.78,362.01,44.79,362.01,49.93z"/>
			<path id="XMLID_270_" class="st2" d="M396.89,25.18v38.28h-6.63V25.18H396.89z"/>
		</g>
	</g>
</g>
</svg>
