<svg viewBox="0 0 41 29" version="1.1" xmlns="http://www.w3.org/2000/svg" xmlns:xlink="http://www.w3.org/1999/xlink">
    <defs>
        <filter id="filter-1">
            <feColorMatrix in="SourceGraphic" type="matrix" values="0 0 0 0 1.000000 0 0 0 0 1.000000 0 0 0 0 1.000000 0 0 0 1.000000 0"></feColorMatrix>
        </filter>
    </defs>
    <g id="Main" stroke="none" stroke-width="1" fill="none" fill-rule="evenodd">
        <g id="Updates-Media-Home" transform="translate(-932.000000, -7945.000000)">
            <g id="Testimonials" transform="translate(-530.000000, 7419.615220)">
                <g id="Group-32" transform="translate(822.000000, 494.000000)">
                    <g id="Quote" transform="translate(614.000000, 0.000000)" filter="url(#filter-1)">
                        <g transform="translate(26.196970, 31.712121)">
                            <path d="M9.4295226,9.091527 L9.35888861,9.08975537 C8.50812257,9.0708837 7.80155155,9.74071271 7.780215,10.5912477 C7.75895548,11.4417826 8.43117234,12.1485847 9.2817073,12.1699213 L9.36551295,12.171924 C12.6959404,12.2363958 15.4054512,15.0000567 15.4054512,18.3324869 C15.4054512,21.7303132 12.641097,24.4946673 9.2432707,24.4946673 C5.84544439,24.4946673 3.08109023,21.7303132 3.08109023,18.3324869 C3.08109023,14.0884391 4.09045539,10.1722194 6.08137887,6.69251312 C7.56931437,4.09168783 9.08243779,2.71790672 9.11070679,2.69248773 C9.74525732,2.1291874 9.80487642,1.15802776 9.24303961,0.52124344 C8.6800474,-0.116619265 7.70665397,-0.177547825 7.06863721,0.385290334 C6.99415185,0.45107161 5.22414254,2.02974522 3.48178602,5.03272981 C1.89332995,7.77035551 0,12.2999433 0,18.3324869 C0,23.4292263 4.14653123,27.5757576 9.2432707,27.5757576 C14.3400102,27.5757576 18.4865414,23.4292263 18.4865414,18.3324869 C18.4865414,15.8952675 17.5461927,13.5955417 15.8388065,11.8568825 C14.1348095,10.1217665 11.8586541,9.13974606 9.4295226,9.091527 Z" id="Path" fill="#FFFFFF" fill-rule="nonzero"></path>
                            <path d="M36.7902201,11.8568825 C35.0861461,10.1216895 32.8101447,9.13966904 30.3808592,9.091527 L30.3103022,9.08975537 C29.4623091,9.0708837 28.7529651,9.74071271 28.7316286,10.5912477 C28.710292,11.4417826 29.3825859,12.1485847 30.2331209,12.1699213 L30.3169265,12.171924 C33.647354,12.2364728 36.3568647,15.0001337 36.3568647,18.3324869 C36.3568647,21.7303132 33.5925106,24.4946673 30.1946843,24.4946673 C26.796858,24.4946673 24.0325038,21.7303132 24.0325038,18.3324869 C24.0325038,14.0884391 25.041869,10.1721424 27.0327154,6.69259015 C28.5206509,4.09176486 30.0337743,2.71798375 30.0620433,2.69256475 C30.6966709,2.1291874 30.756213,1.15810479 30.1943762,0.521320467 C29.631461,-0.116619265 28.6579905,-0.177547825 28.0199738,0.385367361 C27.9455654,0.451148637 26.1754791,2.02982224 24.4331226,5.03280684 C22.8447435,7.77035551 20.9514136,12.2999433 20.9514136,18.3324869 C20.9514136,23.4292263 25.0979448,27.5757576 30.1946843,27.5757576 C35.2914237,27.5757576 39.437955,23.4292263 39.437955,18.3324869 C39.437955,15.8952675 38.4976062,13.5955417 36.7902201,11.8568825 Z" id="Path" fill="#FFFFFF" fill-rule="nonzero"></path>
                        </g>
                    </g>
                </g>
            </g>
        </g>
    </g>
</svg>