<svg viewBox="0 0 34 41" version="1.1" xmlns="http://www.w3.org/2000/svg" xmlns:xlink="http://www.w3.org/1999/xlink">
    <defs>
        <filter id="filter-1">
            <feColorMatrix in="SourceGraphic" type="matrix" values="0 0 0 0 1.000000 0 0 0 0 1.000000 0 0 0 0 1.000000 0 0 0 1.000000 0"></feColorMatrix>
        </filter>
    </defs>
    <g id="Main" stroke="none" stroke-width="1" fill="none" fill-rule="evenodd">
        <g id="Updates-Media-Home" transform="translate(-381.000000, -2536.000000)">
            <g id="New-Service" transform="translate(291.558458, 2240.628458)">
                <g id="Group-11-Copy" transform="translate(0.000000, 245.000000)">
                    <g id="document" transform="translate(77.441542, 47.371542)" filter="url(#filter-1)">
                        <g transform="translate(12.150943, 3.000000)">
                            <path d="M1.81291203,41 L31.8852012,41 C32.4175385,41 32.8490566,40.572546 32.8490566,40.0452224 L32.8490566,0.954777644 C32.8490566,0.427453951 32.4175385,0 31.8852012,0 L9.5237554,0 C9.27141805,0 9.03064697,0.0988194862 8.85233371,0.270583984 C8.8490566,0.273734751 8.84539395,0.276408128 8.84221323,0.279654372 L1.13136986,7.91787553 C0.9550807,8.09250436 0.849056604,8.33673648 0.849056604,8.5929988 L0.849056604,40.0452224 C0.849056604,40.572546 1.28057468,41 1.81291203,41 Z M30.9213458,39.0904447 L2.77676745,39.0904447 L2.77676745,9.54777644 L9.5237554,9.54777644 C10.0560927,9.54777644 10.4876108,9.12032249 10.4876108,8.5929988 L10.4876108,1.90955529 L30.9213458,1.90955529 L30.9213458,39.0904447 Z" id="Shape" fill="#000000" fill-rule="nonzero"></path>
                            <path d="M8.7990566,11 C8.2743716,11 7.8490566,11.4477 7.8490566,12 C7.8490566,12.5523 8.2743716,13 8.7990566,13 L25.8990566,13 C26.4237416,13 26.8490566,12.5523 26.8490566,12 C26.8490566,11.4477 26.4237416,11 25.8990566,11 L8.7990566,11 Z" id="Path" fill="#000000" fill-rule="nonzero"></path>
                            <path d="M19.8490566,19 C20.4013566,19 20.8490566,18.5523 20.8490566,18 C20.8490566,17.4477 20.4013566,17 19.8490566,17 L13.8490566,17 C13.2967566,17 12.8490566,17.4477 12.8490566,18 C12.8490566,18.5523 13.2967566,19 13.8490566,19 L19.8490566,19 Z" id="Path" fill="#000000" fill-rule="nonzero"></path>
                            <path d="M25.8990566,23 L8.7990566,23 C8.2743716,23 7.8490566,23.4477 7.8490566,24 C7.8490566,24.5523 8.2743716,25 8.7990566,25 L25.8990566,25 C26.4237416,25 26.8490566,24.5523 26.8490566,24 C26.8490566,23.4477 26.4237416,23 25.8990566,23 Z" id="Path" fill="#000000" fill-rule="nonzero"></path>
                            <path d="M24.9115566,32.1600333 L23.4288066,32.1600333 C23.1830879,31.9120057 22.9785254,31.6959937 22.8053691,31.513101 C22.1959004,30.8695726 21.7924004,30.4436203 21.1474004,30.4436203 C21.1448691,30.4436203 21.1423379,30.4436203 21.1398066,30.4436203 C20.4972441,30.4469322 20.1196191,30.8542089 19.5479316,31.4707817 C19.3714004,31.6611263 19.1629004,31.8860622 18.9069629,32.1464175 C18.2472441,32.0958184 18.0262754,31.9167897 17.9580254,31.8327952 C17.7517754,31.5791558 17.8917441,30.9754627 17.9753691,30.6146452 C18.0658379,30.2244803 18.2342129,29.4983374 17.5523691,29.1288721 C16.8487754,28.747539 16.2727754,29.2802093 15.6629316,29.8438831 C15.1689629,30.3004709 14.4100566,31.0443694 13.2733379,32.1599413 L11.7865566,32.1599413 C11.2687754,32.1599413 10.8490566,32.5718178 10.8490566,33.0799246 C10.8490566,33.5880314 11.2687754,33.999908 11.7865566,33.999908 L13.6615566,33.999908 C13.9101816,33.999908 14.1486816,33.9029418 14.3244629,33.7304449 C14.8584629,33.2064223 15.5381504,32.5386984 16.0421504,32.0490833 C16.1144316,32.3672135 16.2526191,32.6856198 16.4924316,32.9804744 C17.0424629,33.6570302 17.9825879,34 19.2865566,34 C19.5351816,34 19.7736816,33.9030338 19.9494629,33.7305369 C20.3716191,33.3162684 20.6838066,32.9796464 20.9345879,32.7091713 C21.0068691,32.6311567 21.0829004,32.5492782 21.1536816,32.4745756 C21.2419941,32.5651939 21.3395879,32.6682321 21.4320254,32.7657503 C21.6755879,33.0228857 21.9787754,33.3429479 22.3736504,33.7305369 C22.5494316,33.9030338 22.7879316,34 23.0365566,34 L24.9115566,34 C25.4293379,34 25.8490566,33.5881234 25.8490566,33.0800166 C25.8490566,32.5719098 25.4293379,32.1600333 24.9115566,32.1600333 L24.9115566,32.1600333 Z" id="Path" fill="#000000" fill-rule="nonzero"></path>
                        </g>
                    </g>
                </g>
            </g>
        </g>
    </g>
</svg>