<svg viewBox="0 0 44 36" version="1.1" xmlns="http://www.w3.org/2000/svg" xmlns:xlink="http://www.w3.org/1999/xlink">
    <g id="Main" stroke="none" stroke-width="1" fill="none" fill-rule="evenodd">
        <g id="Updates-Media-Home" transform="translate(-1038.000000, -3051.000000)" fill="#000000" fill-rule="nonzero">
            <g id="New-Service" transform="translate(291.558458, 2240.628458)">
                <g id="Group-11-Copy-5" transform="translate(668.000000, 757.000000)">
                    <g id="Group-9-Copy" transform="translate(77.441542, 47.371542)">
                        <g id="video-player" transform="translate(1.545455, 6.000000)">
                            <path d="M39.993608,0 L2.91548295,0 C1.55852202,0 0.454545455,1.0934625 0.454545455,2.4375 L0.454545455,23.5625 C0.454545455,24.9065375 1.55852202,26 2.91548295,26 L39.993608,26 C41.3505689,26 42.4545455,24.9065375 42.4545455,23.5625 L42.4545455,2.4375 C42.4545455,1.0934625 41.3505689,0 39.993608,0 Z M40.8139205,23.5625 C40.8139205,24.0105125 40.4459283,24.375 39.993608,24.375 L2.91548295,24.375 C2.46316264,24.375 2.09517045,24.0105125 2.09517045,23.5625 L2.09517045,2.4375 C2.09517045,1.9894875 2.46316264,1.625 2.91548295,1.625 L39.993608,1.625 C40.4459283,1.625 40.8139205,1.9894875 40.8139205,2.4375 L40.8139205,23.5625 Z" id="Shape"></path>
                            <path d="M25.0785417,12.2933312 L18.6784777,8.12669367 C18.4318352,7.96611146 18.1210321,7.95761152 17.8667096,8.10444383 C17.612307,8.25127613 17.4545455,8.53035751 17.4545455,8.83335539 L17.4545455,17.1666304 C17.4545455,17.469545 17.612387,17.7486264 17.8667096,17.895542 C18.1172721,18.0402076 18.4281552,18.036291 18.6784777,17.8732922 L25.0785417,13.7066546 C25.312464,13.5544057 25.4545455,13.2873242 25.4545455,13 C25.4545455,12.7126616 25.312464,12.4455801 25.0785417,12.2933312 L25.0785417,12.2933312 Z" id="Path"></path>
                            <path d="M41.634233,32.25 L12.3272564,32.25 C11.9620533,30.957525 10.6759673,30 9.14985795,30 C7.62374858,30 6.33766264,30.957525 5.97245952,32.25 L1.27485795,32.25 C0.821799361,32.25 0.454545455,32.585775 0.454545455,33 C0.454545455,33.414225 0.821799361,33.75 1.27485795,33.75 L5.97245952,33.75 C6.33766264,35.042475 7.62374858,36 9.14985795,36 C10.6759673,36 11.9620533,35.042475 12.3272564,33.75 L41.634233,33.75 C42.0872915,33.75 42.4545455,33.414225 42.4545455,33 C42.4545455,32.585775 42.0872915,32.25 41.634233,32.25 Z M9.14985795,34.5 C8.24521733,34.5 7.50923295,33.8271 7.50923295,33 C7.50923295,32.1729 8.24521733,31.5 9.14985795,31.5 C10.0544986,31.5 10.790483,32.1729 10.790483,33 C10.790483,33.8271 10.0544986,34.5 9.14985795,34.5 Z" id="Shape"></path>
                        </g>
                    </g>
                </g>
            </g>
        </g>
    </g>
</svg>