<svg viewBox="0 0 34 47" version="1.1" xmlns="http://www.w3.org/2000/svg" xmlns:xlink="http://www.w3.org/1999/xlink">
    <g id="Main" stroke="none" stroke-width="1" fill="none" fill-rule="evenodd">
        <g id="Updates-Media-Home" transform="translate(-1048.000000, -2791.000000)" fill="#000000" fill-rule="nonzero">
            <g id="New-Service" transform="translate(291.558458, 2240.628458)">
                <g id="Group-11-Copy-3" transform="translate(668.000000, 501.000000)">
                    <g id="Group-9-Copy" transform="translate(77.441542, 47.371542)">
                        <g id="mobile-video" transform="translate(11.000000, 2.000000)">
                            <path d="M0,44.2460938 C0,45.7645977 1.20413684,47 2.68421053,47 L20.5789474,47 C22.0590211,47 23.2631579,45.7645977 23.2631579,44.2460938 L23.2631579,35.4335938 L29.5263158,35.4335938 C31.9931053,35.4335938 34,33.3745898 34,30.84375 L34,16.15625 C34,13.6254102 31.9931053,11.5664062 29.5263158,11.5664062 L23.2631579,11.5664062 L23.2631579,2.75390625 C23.2631579,1.23540234 22.0590211,0 20.5789474,0 L2.68421053,0 C1.20413684,0 0,1.23540234 0,2.75390625 L0,44.2460938 Z M32.2105263,16.15625 L32.2105263,30.84375 C32.2105263,32.3622539 31.0063895,33.5976562 29.5263158,33.5976562 L9.84210526,33.5976562 C8.36203158,33.5976562 7.15789474,32.3622539 7.15789474,30.84375 L7.15789474,16.15625 C7.15789474,14.6377461 8.36203158,13.4023438 9.84210526,13.4023438 L29.5263158,13.4023438 C31.0063895,13.4023438 32.2105263,14.6377461 32.2105263,16.15625 Z M1.78947368,2.75390625 C1.78947368,2.24773828 2.19085263,1.8359375 2.68421053,1.8359375 L20.5789474,1.8359375 C21.0723053,1.8359375 21.4736842,2.24773828 21.4736842,2.75390625 L21.4736842,11.5664062 L9.84210526,11.5664062 C7.37531579,11.5664062 5.36842105,13.6254102 5.36842105,16.15625 L5.36842105,30.84375 C5.36842105,33.3745898 7.37531579,35.4335938 9.84210526,35.4335938 L21.4736842,35.4335938 L21.4736842,44.2460938 C21.4736842,44.7522617 21.0723053,45.1640625 20.5789474,45.1640625 L2.68421053,45.1640625 C2.19085263,45.1640625 1.78947368,44.7522617 1.78947368,44.2460938 L1.78947368,2.75390625 Z" id="Shape"></path>
                            <path d="M16.4636846,18.114924 C16.1774818,18.2764391 16,18.583428 16,18.9167249 L16,28.083307 C16,28.4165123 16.1775718,28.7235011 16.4636846,28.885108 C16.7450275,29.0438732 17.0947709,29.0402982 17.3769238,28.8606332 L24.5769958,24.2773421 C24.8401584,24.1098687 25,23.8160797 25,23.500016 C25,23.1839522 24.8401584,22.8901633 24.5769958,22.7226898 L17.3769238,18.1393987 C17.099541,17.9627587 16.7497075,17.9533171 16.4636846,18.114924 L16.4636846,18.114924 Z" id="Path"></path>
                            <path d="M10,42 L14,42 C14.5523,42 15,41.5523 15,41 C15,40.4477 14.5523,40 14,40 L10,40 C9.4477,40 9,40.4477 9,41 C9,41.5523 9.4477,42 10,42 Z" id="Path"></path>
                            <path d="M10,8 L14,8 C14.5523,8 15,7.5523 15,7 C15,6.4477 14.5523,6 14,6 L10,6 C9.4477,6 9,6.4477 9,7 C9,7.5523 9.4477,8 10,8 Z" id="Path"></path>
                        </g>
                    </g>
                </g>
            </g>
        </g>
    </g>
</svg>