<svg viewBox="0 0 45 46" version="1.1" xmlns="http://www.w3.org/2000/svg" xmlns:xlink="http://www.w3.org/1999/xlink">
    <g id="Main" stroke="none" stroke-width="1" fill="none" fill-rule="evenodd">
        <g id="Updates-Media-Home" transform="translate(-1037.000000, -2535.000000)" fill="#000000" fill-rule="nonzero">
            <g id="New-Service" transform="translate(291.558458, 2240.628458)">
                <g id="Group-11" transform="translate(668.000000, 245.000000)">
                    <g id="Group-9-Copy" transform="translate(77.441542, 47.371542)">
                        <g id="pie-chart" transform="translate(0.000000, 2.184756)">
                            <path d="M43.387816,6.25864557 L28.8152223,6.25864557 L28.257316,1.34913463 C28.2079879,0.914807612 27.8405191,0.58678501 27.403441,0.58678501 L17.090941,0.58678501 C16.6538629,0.58678501 16.2863941,0.914807612 16.237066,1.34913463 L15.6791598,6.25864557 L1.10656601,6.25864557 C0.632019136,6.25864557 0.247191011,6.64347271 0.247191011,7.11801838 L0.247191011,32.8992027 C0.247191011,33.3737484 0.631933199,33.7585755 1.10656601,33.7585755 L12.2560973,33.7585755 L11.0814176,43.6257223 C11.0253004,44.0969164 11.3619176,44.5245403 11.8331988,44.5805714 C12.3044801,44.6366885 12.7320191,44.3001581 12.7881363,43.8287921 L13.9868785,33.7585755 L21.387816,33.7585755 L21.387816,38.5710633 C21.387816,39.0456089 21.7725582,39.4304361 22.247191,39.4304361 C22.7218238,39.4304361 23.106566,39.0456089 23.106566,38.5710633 L23.106566,33.7585755 L30.5075035,33.7585755 L31.7063316,43.828878 C31.7624488,44.3001581 32.1899879,44.6368603 32.6612691,44.5806573 C33.1325504,44.5246262 33.4690816,44.0970023 33.4130504,43.6258082 L32.2383707,33.7585755 L43.387816,33.7585755 C43.8624488,33.7585755 44.247191,33.3737484 44.247191,32.8992027 L44.247191,7.11801838 C44.247191,6.64347271 43.8624488,6.25864557 43.387816,6.25864557 Z M17.8582769,2.30553063 L26.6362769,2.30553063 L27.0854723,6.25864557 L17.4089957,6.25864557 L17.8582769,2.30553063 Z M42.528441,32.0398299 L1.96594101,32.0398299 L1.96594101,7.97739119 L42.528441,7.97739119 L42.528441,32.0398299 Z" id="Shape"></path>
                            <path d="M13.747191,10.586785 C9.06029101,10.586785 5.24719101,14.3998 5.24719101,19.086785 C5.24719101,23.77377 9.06029101,27.586785 13.747191,27.586785 C18.434091,27.586785 22.247191,23.77377 22.247191,19.086785 C22.247191,14.3998 18.434176,10.586785 13.747191,10.586785 Z M13.747191,25.886785 C9.99767101,25.886785 6.94719101,22.836305 6.94719101,19.086785 C6.94719101,15.625245 9.54759601,12.761595 12.897191,12.34178 L12.897191,19.086785 C12.897191,19.556155 13.277736,19.936785 13.747191,19.935935 L20.492196,19.935935 C20.072381,23.286295 17.208731,25.886785 13.747191,25.886785 Z" id="Shape"></path>
                            <path d="M28.1043339,10.586785 C27.6309339,10.586785 27.247191,11.034585 27.247191,11.586785 C27.247191,12.138985 27.6309339,12.586785 28.1043339,12.586785 L38.3900482,12.586785 C38.8634482,12.586785 39.247191,12.138985 39.247191,11.586785 C39.247191,11.034585 38.8634482,10.586785 38.3900482,10.586785 L28.1043339,10.586785 Z" id="Path"></path>
                            <path d="M38.3900482,16.586785 L28.1043339,16.586785 C27.6309339,16.586785 27.247191,17.034585 27.247191,17.586785 C27.247191,18.138985 27.6309339,18.586785 28.1043339,18.586785 L38.3900482,18.586785 C38.8634482,18.586785 39.247191,18.138985 39.247191,17.586785 C39.247191,17.034585 38.8634482,16.586785 38.3900482,16.586785 Z" id="Path"></path>
                            <path d="M38.3900482,21.586785 L28.1043339,21.586785 C27.6309339,21.586785 27.247191,22.034585 27.247191,22.586785 C27.247191,23.138985 27.6309339,23.586785 28.1043339,23.586785 L38.3900482,23.586785 C38.8634482,23.586785 39.247191,23.138985 39.247191,22.586785 C39.247191,22.034585 38.8634482,21.586785 38.3900482,21.586785 Z" id="Path"></path>
                            <path d="M38.3900482,26.586785 L28.1043339,26.586785 C27.6309339,26.586785 27.247191,27.034585 27.247191,27.586785 C27.247191,28.138985 27.6309339,28.586785 28.1043339,28.586785 L38.3900482,28.586785 C38.8634482,28.586785 39.247191,28.138985 39.247191,27.586785 C39.247191,27.034585 38.8634482,26.586785 38.3900482,26.586785 Z" id="Path"></path>
                        </g>
                    </g>
                </g>
            </g>
        </g>
    </g>
</svg>