<svg viewBox="0 0 43 36" version="1.1" xmlns="http://www.w3.org/2000/svg" xmlns:xlink="http://www.w3.org/1999/xlink">
    <g id="Main" stroke="none" stroke-width="1" fill="none" fill-rule="evenodd">
        <g id="Updates-Media-Home" transform="translate(-370.000000, -3049.000000)" fill="#000000" fill-rule="nonzero">
            <g id="New-Service" transform="translate(291.558458, 2240.628458)">
                <g id="Group-11-Copy-4" transform="translate(0.000000, 757.000000)">
                    <g id="Group-9-Copy" transform="translate(77.441542, 47.371542)">
                        <g id="megaphone" transform="translate(1.000000, 4.000000)">
                            <path d="M42.2982266,13.0567924 L37.9609375,12.3394629 L37.9609375,1.37885604 C37.9609375,0.992358144 37.6931953,0.656609974 37.3140898,0.567860458 C36.9347324,0.478860944 36.5441211,0.660609953 36.3699375,1.00627473 C31.4784355,10.7133051 24.6782207,9.68256076 15.9183145,10.5455561 L5.87890625,10.5455561 C5.41514453,10.5455561 5.0390625,10.9187207 5.0390625,11.3788848 L5.0390625,12.2122136 L0.83984375,12.2122136 C0.376082031,12.2122136 0,12.5853783 0,13.0455424 L0,19.7121727 C0,20.1723369 0.376082031,20.5455015 0.83984375,20.5455015 L5.0390625,20.5455015 L5.0390625,21.3788303 C5.0390625,21.8389945 5.41514453,22.2121591 5.87890625,22.2121591 L8.49686719,22.2121591 L10.0845918,34.8154237 C10.137166,35.2325048 10.4944355,35.5454197 10.9179688,35.5454197 L15.9570312,35.5454197 C16.1978984,35.5454197 16.4272598,35.442837 16.5866621,35.2635879 C16.7460645,35.0843389 16.8202227,34.8458402 16.7904082,34.6087582 L15.2287187,22.2121591 L15.9183145,22.2121591 C24.2805547,23.0354879 31.4854902,22.0583266 36.3699375,31.7514404 C36.5145586,32.0383555 36.8084199,32.2121879 37.1209258,32.2121879 C37.5839316,32.2121879 37.9609375,31.8396066 37.9609375,31.3787758 L37.9609375,20.4180022 L42.2982266,19.7007561 C42.7031992,19.6337565 43,19.2860917 43,18.8787606 L43,13.8787879 C43,13.4713734 42.7031992,13.1237087 42.2982266,13.0567924 Z M1.6796875,18.8787606 L1.6796875,13.8787879 L5.0390625,13.8787879 L5.0390625,18.8787606 L1.6796875,18.8787606 Z M6.71875,12.2121303 L15.1171875,12.2121303 L15.1171875,20.5454182 L6.71875,20.5454182 L6.71875,12.2121303 Z M15.0056562,33.8786788 L11.6593828,33.8786788 L10.1896563,22.2120758 L13.5359297,22.2120758 L15.0056562,33.8786788 Z M36.28125,28.2912093 C31.1677773,20.82125 24.1854844,21.2672476 16.796875,20.6195011 L16.796875,12.1380474 C24.1449199,11.4934675 31.1492168,11.9747983 36.28125,4.46808919 L36.28125,28.2912093 Z" id="Shape"></path>
                        </g>
                    </g>
                </g>
            </g>
        </g>
    </g>
</svg>