<svg viewBox="0 0 41 42" version="1.1" xmlns="http://www.w3.org/2000/svg" xmlns:xlink="http://www.w3.org/1999/xlink">
    <g id="Main" stroke="none" stroke-width="1" fill="none" fill-rule="evenodd">
        <g id="Updates-Media-Home" transform="translate(-369.000000, -2791.000000)" fill="#000000" fill-rule="nonzero">
            <g id="New-Service" transform="translate(291.558458, 2240.628458)">
                <g id="Group-11-Copy-2" transform="translate(0.000000, 501.000000)">
                    <g id="Group-9-Copy" transform="translate(77.441542, 47.371542)">
                        <g id="chat" transform="translate(0.000000, 2.000000)">
                            <path d="M40.9413679,27.4092887 C40.3876378,21.4998318 35.6436568,16.6255469 29.7561812,15.9247819 C28.2347249,15.7435647 26.7380122,15.8230825 25.2889451,16.1597316 C25.4647134,15.4203688 25.5733774,14.6617872 25.6099724,13.8903932 C25.9594269,6.50541388 20.0814804,0.456140351 12.8140439,0.456140351 C5.71781129,0.456140351 -0.0458657993,6.27430796 0.000418504791,13.3539487 C0.0163537583,15.8000199 0.724471581,18.1742609 2.04805854,20.2199407 C2.50665752,20.9288737 2.61363992,21.8079731 2.34169962,22.6318184 C2.05062099,23.5134002 1.38654533,24.2054367 0.519715585,24.5305546 C0.157208587,24.6664474 -0.0561156106,25.0423349 0.0129104623,25.4231872 C0.0820166119,25.8041195 0.413694099,26.0811103 0.800864705,26.0811103 L12.3829112,26.0811103 C13.52032,26.0811103 14.6413931,25.9386511 15.7232286,25.6635822 C15.4439213,26.833686 15.3314937,28.0396649 15.3895492,29.2654232 C15.7160217,36.1580011 21.6890993,41.4561404 28.6166104,41.4561404 L40.1986569,41.4561404 C40.5858275,41.4561404 40.917505,41.1791496 40.9866112,40.7982172 C41.0556373,40.4172848 40.8423131,40.0414774 40.4798061,39.9055846 C38.7105125,39.2420559 37.9614755,37.1252667 38.9514631,35.5950508 C40.5269712,33.1599503 41.2150699,30.3293432 40.9413679,27.4092887 L40.9413679,27.4092887 Z M3.15992284,24.4796248 C3.46181181,24.0784326 3.7002,23.6255899 3.86251537,23.1339893 C4.287322,21.8472915 4.11603805,20.4681033 3.39262558,19.3500503 C3.39262558,19.3499702 3.39262558,19.3499702 3.39262558,19.3499702 C2.2351176,17.5609413 1.61588486,15.483951 1.60195152,13.3434585 C1.56167296,7.16846205 6.59280885,2.05778606 12.8136435,2.05778606 C19.1544331,2.05778606 24.3170548,7.33470457 24.010121,13.8147192 C23.7316945,19.6953478 18.5158218,24.4796248 12.3829112,24.4796248 L3.15992284,24.4796248 Z M37.8395187,39.8546548 L28.6165303,39.8546548 C22.4836198,39.8546548 17.267667,35.0703779 16.9893206,29.1897492 C16.9219761,27.7678792 17.1158417,26.37748 17.5646713,25.0513036 C20.7002327,23.7501917 23.363502,21.2438216 24.7011825,17.9852761 C26.2607553,17.4745369 27.8956002,17.316062 29.56688,17.5150565 C34.7460776,18.1315792 38.8591347,22.3555484 39.3468015,27.5587948 C39.586551,30.1169756 38.9848551,32.5950781 37.606816,34.7250803 C36.5625364,36.338978 36.7288556,38.3785718 37.8395187,39.8546548 Z" id="Shape"></path>
                            <path d="M16.6239962,11.7494515 L10.2239322,7.58276123 C9.97736977,7.42226032 9.66632666,7.41376027 9.41216412,7.56059443 C9.15776158,7.7074286 9,7.98643018 9,8.28943189 L9,16.6228124 C9,16.9258141 9.15784158,17.2048157 9.41216412,17.3516498 C9.66208662,17.4960673 9.97312973,17.492734 10.2239322,17.3294831 L16.6239962,13.1627928 C16.8579186,13.0104586 17,12.7434571 17,12.4561221 C17,12.1687872 16.8579186,11.9017857 16.6239962,11.7494515 L16.6239962,11.7494515 Z" id="Path"></path>
                            <path d="M35.199996,27.4561404 L20.800004,27.4561404 C20.3582418,27.4561404 20,27.9039404 20,28.4561404 C20,29.0083404 20.3582418,29.4561404 20.800004,29.4561404 L35.199996,29.4561404 C35.6417582,29.4561404 36,29.0083404 36,28.4561404 C36,27.9039404 35.6418382,27.4561404 35.199996,27.4561404 Z" id="Path"></path>
                            <path d="M27.75,25.4561404 L32.25,25.4561404 C32.66415,25.4561404 33,25.0083404 33,24.4561404 C33,23.9039404 32.66415,23.4561404 32.25,23.4561404 L27.75,23.4561404 C27.33585,23.4561404 27,23.9039404 27,24.4561404 C27,25.0083404 27.33585,25.4561404 27.75,25.4561404 Z" id="Path"></path>
                            <path d="M32.1666667,33.4561404 L23.8333333,33.4561404 C23.3731667,33.4561404 23,33.9039404 23,34.4561404 C23,35.0083404 23.3731667,35.4561404 23.8333333,35.4561404 L32.1666667,35.4561404 C32.6268333,35.4561404 33,35.0083404 33,34.4561404 C33,33.9039404 32.6269167,33.4561404 32.1666667,33.4561404 Z" id="Path"></path>
                        </g>
                    </g>
                </g>
            </g>
        </g>
    </g>
</svg>