<svg viewBox="0 0 20 124" version="1.1" xmlns="http://www.w3.org/2000/svg" xmlns:xlink="http://www.w3.org/1999/xlink">
    <g id="Main" stroke="none" stroke-width="1" fill="none" fill-rule="evenodd">
        <g id="Updates-Media-Home" transform="translate(-1752.000000, -1756.000000)" fill="#000" fill-rule="nonzero">
            <g id="decor-dots-black" transform="translate(1752.000000, 1756.000000)">
                <path d="M19.1731905,66.4266019 C20.2458245,66.8765009 20.9440615,67.9350859 20.9418537,69.1080229 C20.9388245,70.7039479 19.6584735,71.9969409 18.0781545,72.0000002 C16.9166865,72.0022299 15.8684515,71.2970979 15.4229515,70.2138719 C14.9774515,69.1306469 15.2225775,67.8830359 16.0438605,67.0536419 C16.8651445,66.2242489 18.1005565,65.9767029 19.1731905,66.4266019 Z M70.2326015,66.0726489 C71.3045615,66.5228739 72.0022035,67.5811089 71.9999947,68.7535419 C71.9999947,69.5214999 71.6975235,70.2579239 71.1592905,70.8004319 C70.6210575,71.3429409 69.8912565,71.6469789 69.1308095,71.6455192 C67.9698375,71.6455192 66.9232875,70.9389499 66.4795165,69.8555459 C66.0357465,68.7721419 66.2822285,67.5254399 67.1039445,66.6971959 C67.9256605,65.8689529 69.1606425,65.6224239 70.2326015,66.0726489 Z M53.0833855,66.0726489 C54.1553455,66.5228739 54.8529885,67.5811089 54.8507787,68.7535419 C54.8507787,69.5214999 54.5483075,70.2579239 54.0100745,70.8004319 C53.4718415,71.3429409 52.7420415,71.6469789 51.9815935,71.6455192 C50.8206225,71.6455192 49.7740715,70.9389499 49.3303015,69.8555459 C48.8865305,68.7721419 49.1330125,67.5254399 49.9547285,66.6971959 C50.7764445,65.8689529 52.0114265,65.6224239 53.0833855,66.0726489 Z M35.9329005,66.0721209 C37.0055335,66.5220199 37.7037715,67.5806049 37.7015627,68.7535419 C37.6985335,70.3494659 36.4181835,71.6424599 34.8378635,71.6455192 C33.6763955,71.6477489 32.6281615,70.9426169 32.1826615,69.8593909 C31.7371615,68.7761659 31.9822865,67.5285539 32.8035705,66.6991609 C33.6248535,65.8697679 34.8602665,65.6222219 35.9329005,66.0721209 Z M1.63446855,66.0721209 C2.70710225,66.5220199 3.40533965,67.5806049 3.4031315,68.7535419 C3.40010225,70.3494659 2.11975185,71.6424599 0.539432352,71.6455192 C-0.622035848,71.6477489 -1.67026995,70.9426169 -2.11577015,69.8593909 C-2.56127035,68.7761659 -2.31614475,67.5285539 -1.49486115,66.6991609 C-0.673577548,65.8697679 0.561834752,65.6222219 1.63446855,66.0721209 Z M-15.5147472,66.0721209 C-14.4421135,66.5220199 -13.743876,67.5806049 -13.7460842,68.7535419 C-13.7460842,70.3507309 -15.0282117,71.6455192 -16.6097833,71.6455192 C-17.7712516,71.6477489 -18.8194857,70.9426169 -19.2649858,69.8593909 C-19.710486,68.7761659 -19.4653605,67.5285539 -18.6440769,66.6991609 C-17.8227933,65.8697679 -16.5873809,65.6222219 -15.5147472,66.0721209 Z M-32.6707265,66.0716009 C-31.5974183,66.5211709 -30.8985831,67.5801019 -30.9007859,68.7535419 C-30.9007859,70.3485699 -32.1795703,71.6424529 -33.758999,71.645551 C-34.9209588,71.6499929 -35.9708741,70.9462899 -36.4181051,69.8632469 C-36.8653362,68.7802039 -36.6215704,67.5316859 -35.8007228,66.7011419 C-34.9798753,65.8705979 -33.7440348,65.6220319 -32.6707265,66.0716009 Z M54.8718195,52.2222369 C55.9437795,52.6724619 56.6414215,53.7306969 56.6392127,54.9031299 C56.6392127,55.6710879 56.3367415,56.4075119 55.7985085,56.9500199 C55.2602755,57.4925289 54.5304755,57.7965679 53.7700275,57.7951072 C52.6090555,57.7951072 51.5625055,57.0885389 51.1187355,56.0051339 C50.6749645,54.9217299 50.9214465,53.6750279 51.7431625,52.8467839 C52.5648785,52.0185409 53.7998605,51.7720119 54.8718195,52.2222369 Z M37.7226045,52.2222369 C38.7945635,52.6724619 39.4922065,53.7306969 39.4899967,54.9031299 C39.4899967,55.6710879 39.1875255,56.4075119 38.6492925,56.9500199 C38.1110595,57.4925289 37.3812595,57.7965679 36.6208115,57.7951072 C35.4598405,57.7951072 34.4132895,57.0885389 33.9695195,56.0051339 C33.5257485,54.9217299 33.7722305,53.6750279 34.5939465,52.8467839 C35.4156625,52.0185409 36.6506445,51.7720119 37.7226045,52.2222369 Z M20.5721185,52.2217089 C21.6447515,52.6716079 22.3429895,53.7301929 22.3407807,54.9031299 C22.3377515,56.4990549 21.0574015,57.7920479 19.4770825,57.7951072 C18.3156135,57.7973369 17.2673795,57.0922049 16.8218795,56.0089789 C16.3763795,54.9257539 16.6215045,53.6781429 17.4427885,52.8487489 C18.2640725,52.0193559 19.4994845,51.7718099 20.5721185,52.2217089 Z M3.42290235,52.2217089 C4.49553605,52.6716079 5.19377355,53.7301929 5.1915654,54.9031299 C5.18853615,56.4990549 3.90818575,57.7920479 2.32786625,57.7951072 C1.16639805,57.7973369 0.118163852,57.0922049 -0.327336248,56.0089789 C-0.772836448,54.9257539 -0.527710848,53.6781429 0.293572752,52.8487489 C1.11485625,52.0193559 2.35026865,51.7718099 3.42290235,52.2217089 Z M-13.7263133,52.2217089 C-12.6536796,52.6716079 -11.9554421,53.7301929 -11.9576503,54.9031299 C-11.9606795,56.4990549 -13.2410299,57.7920479 -14.8213494,57.7951072 C-15.9828177,57.7973369 -17.0310518,57.0922049 -17.4765519,56.0089789 C-17.9220521,54.9257539 -17.6769266,53.6781429 -16.855643,52.8487489 C-16.0343594,52.0193559 -14.798947,51.7718099 -13.7263133,52.2217089 Z M-30.875529,52.2217089 C-29.8028953,52.6716079 -29.1046578,53.7301929 -29.106866,54.9031299 C-29.106866,55.6701269 -29.4085857,56.4057099 -29.9456315,56.9480589 C-30.4826773,57.4904079 -31.2110677,57.7951072 -31.9705651,57.7951072 C-33.1320334,57.7973369 -34.1802675,57.0922049 -34.6257677,56.0089789 C-35.0712678,54.9257539 -34.8261423,53.6781429 -34.0048587,52.8487489 C-33.1835751,52.0193559 -31.9481627,51.7718099 -30.875529,52.2217089 Z M-48.0315084,52.2211899 C-46.9582001,52.6707589 -46.259365,53.7296899 -46.2615678,54.9031299 C-46.2615678,56.4981579 -47.5403521,57.7920409 -49.1197808,57.795139 C-50.2817406,57.7995819 -51.331656,57.0958779 -51.778887,56.0128349 C-52.226118,54.9297929 -51.9823522,53.6812739 -51.1615047,52.8507299 C-50.3406572,52.0201859 -49.1048167,51.7716199 -48.0315084,52.2211899 Z" id="装饰点" transform="translate(9.999997, 62.000003) rotate(90.000000) translate(-9.999997, -62.000003) "></path>
            </g>
        </g>
    </g>
</svg>