<?xml version="1.0" encoding="utf-8"?>
<!-- Generator: Adobe Illustrator 24.2.3, SVG Export Plug-In . SVG Version: 6.00 Build 0)  -->
<svg version="1.1" id="Layer_1" xmlns="http://www.w3.org/2000/svg" xmlns:xlink="http://www.w3.org/1999/xlink" x="0px" y="0px"
	 viewBox="0 0 231.6 339.83" style="enable-background:new 0 0 231.6 339.83;" xml:space="preserve">
<style type="text/css">
	.st0{fill-rule:evenodd;clip-rule:evenodd;fill:#FF0B77;}
	.st1{fill-rule:evenodd;clip-rule:evenodd;fill:#FFFFFF;}
</style>
<g>
	<path id="XMLID_79_" class="st0" d="M197.74,215.42l0.19-143.78l-45.11,79.19c-7.31-5.65-14.65-11.26-21.99-16.91l64.95-113.98
		h29.75l-0.3,228.85h-29.19l-81.34-62.51l0,0l-66.35-50.99l-0.19,143.78l45.11-79.2l8.81,6.82l0,0l13.18,10.09L50.23,330.92H20.56
		l0.3-223.5v-5.54h29.07C99.19,139.73,148.48,177.58,197.74,215.42z"/>
	<path id="XMLID_76_" class="st1" d="M183.26,204.4l0.19-143.78l-45.11,79.19c-7.31-5.65-14.65-11.26-21.99-16.91L181.3,8.92h29.75
		l-0.26,223.35l-0.04,5.5h-29.19l-81.34-62.51l0,0l-66.35-50.99l-0.19,143.78l45.11-79.19l8.81,6.82l0,0l13.18,10.09L35.75,319.9
		H6.08l0.3-223.5v-5.54h29.07C84.71,128.71,134,166.56,183.26,204.4z"/>
</g>
</svg>
