<?xml version="1.0" encoding="utf-8"?>
<!-- Generator: Adobe Illustrator 24.2.3, SVG Export Plug-In . SVG Version: 6.00 Build 0)  -->
<svg version="1.1" id="Layer_1" xmlns="http://www.w3.org/2000/svg" xmlns:xlink="http://www.w3.org/1999/xlink" x="0px" y="0px"
	 viewBox="0 0 129 126.5" style="enable-background:new 0 0 129 126.5;" xml:space="preserve">
<style type="text/css">
	.st0{fill:#E5BCDE;}
	.st1{fill:#FFFFFF;}
	.st2{fill:none;stroke:#000000;stroke-linecap:round;stroke-linejoin:round;stroke-miterlimit:10;}
	.st3{stroke:#000000;stroke-linecap:round;stroke-linejoin:round;stroke-miterlimit:10;}
	.st4{fill:#FFFFFF;stroke:#000000;stroke-linecap:round;stroke-linejoin:round;stroke-miterlimit:10;}
	.st5{fill:none;stroke:#000000;stroke-width:1.3;stroke-linecap:round;stroke-linejoin:round;stroke-miterlimit:10;}
	.st6{fill:#C7FA73;filter:url(#Adobe_OpacityMaskFilter);}
	.st7{mask:url(#mask0_2_);}
</style>
<path class="st0" d="M54.38,14.76c-83.45,58.08-6.62,146.86,53.21,95.21l19.76-19.76c2.39-2.02-0.18-71.77,0.74-74.07
	c0-0.74-0.64-1.38-1.38-1.38H54.38L54.38,14.76z"/>
<path class="st1" d="M120.36,75.6c-1.29,2.21-3.03,4.32-5.05,5.88c-2.02,1.56-4.5,2.67-7.08,3.03c-0.09-0.09-0.18,0-0.37,0
	c-2.3-1.93-4.5-3.95-6.71-5.97c-0.46-0.37-0.92-0.83-1.29-1.19c2.39-0.18,4.69-1.01,6.62-2.3c2.02-1.38,3.86-3.12,5.24-5.15
	c2.02-2.85,3.4-6.25,3.03-9.74v-0.09c2.21,2.02,4.78,3.86,8.09,5.61C123.39,68.98,122.2,72.56,120.36,75.6z"/>
<path class="st0" d="M96.19,35.53c2.02-0.92,3.86,3.4,6.34,8.09c0.28,0.55,0.64,1.19,1.01,1.75l-0.18-1.65l-0.09-1.1L98.58,5.94
	c-0.37-3.03-3.03-5.15-6.07-4.96C71.56,2.17,30.48,5.02,9.9,6.58c-0.37,0-0.74,0.09-1.01,0.18c-0.18,0-0.37,0.09-0.46,0.18
	c-0.18,0-0.28,0.09-0.37,0.18c-0.09,0-0.09,0.09-0.18,0.09C7.69,7.31,7.6,7.41,7.41,7.5C7.32,7.59,7.23,7.59,7.23,7.68
	C7.14,7.77,6.95,7.86,6.86,7.96C6.77,8.05,6.68,8.14,6.5,8.23L6.31,8.42C6.13,8.6,5.94,8.78,5.76,9.06
	C5.67,9.24,5.58,9.34,5.48,9.52C5.39,9.7,5.21,9.98,5.12,10.16c-0.09,0.09-0.09,0.28-0.18,0.37c-0.09,0.28-0.18,0.46-0.18,0.74
	c0,0.09,0,0.18,0,0.18c0,0.09-0.09,0.28-0.09,0.37c-0.09,0.46-0.09,0.83,0,1.29c1.47,17.28,5.79,49.44,8.45,66.35
	c0.46,3.03,3.12,5.24,6.25,4.96l16.91-1.75c-0.18-0.37-0.28-0.74-0.37-1.19c-0.37-1.01-0.64-2.11-0.83-3.12h-0.18
	c-1.93-1.93-3.31-4.41-3.77-7.08c-0.18-1.01-0.18-2.11,0.18-3.03c0.64-1.29,2.11-2.11,3.58-2.11l0.37-0.37
	c0.64-0.92,1.84-1.38,2.94-1.38l1.1-0.18c0.09-0.09,0.28-0.18,0.37-0.18c0.92-0.46,1.93-0.74,2.94-0.74l0.74-0.18
	c-0.09-0.92,0.64-1.75,1.56-2.02c0.92-0.28,1.84,0,2.67,0.28c0.83,0.37,1.56,0.83,2.3,1.38c0,0-4.41-8.91-4.69-12.5
	c-0.09-0.74,0.09-1.29,0.37-1.47c1.19-0.64,3.4,1.1,5.61,3.77c2.57,3.03,5.15,7.26,6.8,10.66c2.11,4.5,4.5,11.03,6.98,16.63
	l34.1-3.22c-1.19-1.1-2.3-2.11-3.49-3.22c-3.77-3.58-7.54-7.17-11.4-10.66c0,0-2.11-1.84-4.04-4.04c-0.28-0.37-0.64-0.74-0.92-1.01
	c-1.75-2.02-3.12-4.14-2.48-4.96c0.55-0.74,2.11-0.28,3.95,0.46c0.37,0.18,0.64,0.28,1.01,0.46c2.76,1.29,5.97,3.22,8.09,3.77
	c1.75,0.55,3.31-1.1,2.76-2.85c-0.09-0.37-0.28-0.92-0.55-1.38c-0.09-0.18-0.18-0.37-0.28-0.55c-0.18-0.28-0.37-0.64-0.64-0.92
	c-0.55-0.83-1.38-1.65-2.39-2.57c-0.37-0.37-0.83-0.74-1.29-1.19c-0.46-0.37-1.01-0.83-1.56-1.29c-0.28-0.18-0.64-0.46-0.92-0.74
	l-5.24-3.22l-1.1-0.64c-1.75-1.1-2.94-2.11-3.03-2.94c-0.09-1.19,1.84-2.11,5.7-1.29c1.84-1.01,4.32-0.92,6.43-0.46l0.09-0.28
	c0.37-0.18,3.31-1.56,7.63,0.83C95.36,37.92,95.18,36.08,96.19,35.53z M81.76,23.67c-6.43,0.46-14.61,1.1-21.05,1.56
	c-0.09,0-0.09,0-0.18,0c-1.47,0-2.76-1.1-2.94-2.57c-0.18-1.56,0.92-2.85,2.48-2.94c6.34-0.46,14.61-1.1,20.95-1.56L81.76,23.67z"/>
<path class="st2" d="M81.5,47.07L85,70.4"/>
<path class="st2" d="M62.04,49.41l3.5,23.33"/>
<path class="st1" d="M83.03,44.93c1.21,0.43,2.17,1.5,2.3,2.81c0.08,0.85-0.16,1.57-0.64,2.16c-0.35,0.35-0.93,0.79-1.86,0.88
	l-0.08,0.01c-1.71,0.01-3.32-1.31-3.48-3c-0.08-0.77,0.16-1.57,0.65-2.09c0.35-0.35,0.93-0.79,1.86-0.88l0.08-0.01
	C82.23,44.78,82.63,44.81,83.03,44.93z"/>
<path class="st2" d="M82.74,50.71c-1.71,0.01-3.32-1.31-3.48-3c-0.08-0.77,0.16-1.57,0.65-2.09c0.35-0.35,0.93-0.79,1.86-0.88
	l0.08-0.01c0.38-0.04,0.79,0.08,1.19,0.19c1.21,0.43,2.17,1.5,2.3,2.81c0.08,0.85-0.16,1.57-0.64,2.16
	c-0.35,0.35-0.93,0.79-1.86,0.88C82.82,50.7,82.74,50.71,82.74,50.71z"/>
<path class="st2" d="M21.98,54.08l3.5,23.33"/>
<path class="st2" d="M40.95,51.84l3.5,23.33"/>
<path class="st3" d="M74.04,15.86c-4.96,0.37-10.2,0.74-14.52,1.1c-0.09,0-0.09,0-0.18,0c-1.47,0-2.76-1.1-2.94-2.57
	c-0.18-1.56,0.92-2.85,2.48-2.94c4.32-0.28,9.56-0.74,14.52-1.1L74.04,15.86z"/>
<path class="st2" d="M87.46,14.85c-3.03,0.18-8.09,0.55-13.42,0.92l-0.74-5.51c5.42-0.37,10.48-0.74,13.51-0.92
	c1.56-0.09,2.94,1.1,3.12,2.57C90.13,13.47,89.02,14.76,87.46,14.85z"/>
<path class="st2" d="M88.75,23.21c-1.75,0.09-4.23,0.28-6.98,0.46l-0.74-5.51c2.85-0.18,5.24-0.37,7.08-0.46
	c1.56-0.09,2.94,1.1,3.12,2.57C91.32,21.83,90.22,23.12,88.75,23.21z"/>
<path class="st4" d="M70.09,33.41c-2.85,0.18-5.61,0.37-8.18,0.55c-0.09,0-0.09,0-0.18,0c-1.47,0-2.76-1.1-2.94-2.57
	c-0.18-1.56,0.92-2.85,2.48-2.94c2.48-0.18,5.24-0.37,8.09-0.55L70.09,33.41z"/>
<path class="st2" d="M89.94,31.94c-4.23,0.28-12.22,0.92-19.85,1.47l-0.74-5.51c7.63-0.55,15.62-1.19,19.94-1.47
	c1.56-0.09,2.94,1.1,3.12,2.57C92.61,30.56,91.5,31.85,89.94,31.94z"/>
<path class="st4" d="M48.4,40.67c2.57-3.49,3.86-7.9,3.4-12.68C50.88,17.52,41.79,9.24,31.59,9.61c-0.55,0-1.1,0.09-1.65,0.18
	c-9.37,1.19-16.08,9.65-15.16,19.57c0.28,3.22,1.38,6.25,2.94,8.82c3.68,5.97,10.2,9.83,17.28,9.56
	C40.59,47.47,45.37,44.81,48.4,40.67z"/>
<path class="st0" d="M34.71,34.54l-0.03,0.01c-3.22,0.75-6.48-1.28-7.26-4.49c-0.47-1.96,0.09-4.05,1.46-5.5
	c0.22-0.22,0.24-0.59,0.05-0.82c-1.34-1.91-0.35-4.63,2-5.18c2.28-0.54,4.41,1.43,4.08,3.74c-0.04,0.28,0.14,0.61,0.43,0.72
	c1.88,0.7,3.32,2.31,3.79,4.28C39.98,30.5,37.96,33.76,34.71,34.54z"/>
<path class="st1" d="M30.97,19.65c0,0,1.44-0.26,2.34,0.73c0.87,0.99,0.59,2.39,0.59,2.39l-0.71,0.16
	C33.16,22.94,33.43,20.36,30.97,19.65z"/>
<path class="st1" d="M33.52,24.52l1.25-0.25c0,0,3.73,2.36,2.8,5.46c-0.94,3.1-3.59,3.35-3.59,3.35s2.35-1.08,2.5-3.08
	C36.65,27.97,35.19,25.05,33.52,24.52z"/>
<path class="st2" d="M35.89,23.07l1.55-4.75l-2.36-2.87"/>
<path class="st2" d="M42,18.18l-0.72,3.04l-4.86,2.13"/>
<path class="st2" d="M44.22,38.7l-1.21-10.99l-3.63-1.07"/>
<path class="st2" d="M42.85,22.05l-1.1,2.68l-3.67,0.11"/>
<path class="st2" d="M31.64,15.84c0.58,0.42,1.62,1.48,1.17,2.32"/>
<path class="st2" d="M28.27,24.97l-3.59-3.48l0.75-3.64"/>
<path class="st2" d="M20.6,23.49l2.05,2.35l5.29-0.38"/>
<path class="st2" d="M28.19,42.68L24.13,32.4l2.72-2.64"/>
<path class="st2" d="M21.65,27.31l2.22,1.86l3.3-1.61"/>
<path class="st2" d="M28.67,16.6c-0.31,0.64-0.74,2.06,0.04,2.6"/>
<path class="st1" d="M73.68,93.98c-4.23-1.75-9.19-1.75-13.51-0.09c-4.69,1.75-8.45,5.61-10.38,10.2c-0.55,1.29-0.92,2.76-0.92,4.14
	c-1.93-3.22-3.68-6.53-5.42-9.83c0.09-1.01,0.46-2.02,0.83-3.03c1.84-4.6,5.7-8.36,10.38-10.2c4.04-1.56,8.64-1.56,12.68-0.18
	c0.18,0.46,0.46,0.83,0.64,1.19C69.17,88.09,71.01,90.85,73.68,93.98z"/>
<path class="st0" d="M111.72,69.81c-1.47,2.02-3.22,3.86-5.24,5.15c-2.02,1.29-4.32,2.11-6.62,2.3l-0.09-0.09
	c-0.18-0.18-0.46-0.37-0.64-0.55c-1.19-1.1-2.3-2.11-3.49-3.22c-3.77-3.58-7.54-7.17-11.4-10.66c0,0-2.11-1.84-4.04-4.04
	c-0.28-0.37-0.64-0.74-0.92-1.01c-1.75-2.02-3.12-4.14-2.48-4.96c0.55-0.74,2.11-0.28,3.95,0.46c0.37,0.18,0.64,0.28,1.01,0.46
	c2.76,1.29,5.97,3.22,8.09,3.77c1.75,0.55,3.31-1.1,2.76-2.85c-0.55-1.75-2.21-4.41-6.8-7.9c-0.28-0.18-0.64-0.46-0.92-0.74
	l-5.24-3.22l-1.1-0.64c-1.75-1.1-2.94-2.11-3.03-2.94c-0.09-1.19,1.84-2.11,5.7-1.29c1.84-1.01,4.32-0.92,6.43-0.46l0.09-0.28
	c0.37-0.18,3.31-1.56,7.63,0.83c1.75,0.92,3.68,2.48,5.79,4.96c0.55,0.64,1.01,1.19,1.47,1.84c0.37,0.46,0.64,0.83,1.01,1.29
	c0.64,0.83,1.29,1.65,1.84,2.57c0.09,0.18,0.28,0.37,0.37,0.55c2.67,3.77,5.24,7.44,8.92,10.84v0.09
	C115.12,63.56,113.74,66.96,111.72,69.81z"/>
<path class="st1" d="M109.79,72.19c-1.01,1.01-2.11,2.02-3.31,2.76c-2.02,1.29-4.32,2.11-6.62,2.3l-0.09-0.09
	c-0.18-0.18-0.46-0.37-0.64-0.55c-1.19-1.1-2.3-2.11-3.49-3.22c-3.77-3.58-7.54-7.17-11.4-10.66c0,0-2.11-1.84-4.04-4.04
	c-0.28-0.37-0.64-0.74-0.92-1.01c-1.75-2.02-3.12-4.14-2.48-4.96c0.18-0.18,0.37-0.28,0.74-0.37c0,1.01,1.19,2.76,2.67,4.5
	c0.28,0.37,0.64,0.74,0.92,1.01c1.93,2.21,4.04,4.04,4.04,4.04c3.77,3.58,7.54,7.17,11.4,10.66c1.1,1.1,2.3,2.11,3.49,3.22
	c0.18,0.18,0.46,0.37,0.64,0.64c0,0.09,0.09,0.09,0.09,0.09c2.39-0.18,4.59-1.01,6.62-2.3C108.23,73.57,109.06,72.93,109.79,72.19z"
	/>
<path class="st1" d="M78.73,56.66c0,0-2.57-4.32,5.88-1.65c-2.39-1.19-6.25-2.21-7.26-2.11C76.34,52.99,78.73,56.66,78.73,56.66z"/>
<path class="st1" d="M92.79,54.64c-0.46-9.37-16.45-14.15-14.7-17.09c-3.58,0.74-2.67,2.39-1.1,3.49c1.56,1.1,10.02,5.79,12.41,8.64
	C91.69,52.44,93.98,53.72,92.79,54.64z"/>
<path class="st2" d="M111.72,69.81c-1.47,2.02-3.22,3.86-5.24,5.15c-2.02,1.29-4.32,2.11-6.62,2.3l-0.09-0.09
	c-0.18-0.18-0.46-0.37-0.64-0.55c-1.19-1.1-2.3-2.11-3.49-3.22c-3.77-3.58-7.54-7.17-11.4-10.66c0,0-2.11-1.84-4.04-4.04
	c-0.28-0.37-0.64-0.74-0.92-1.01c-1.75-2.02-3.12-4.14-2.48-4.96c0.55-0.74,2.11-0.28,3.95,0.46c0.37,0.18,0.64,0.28,1.01,0.46
	c2.76,1.29,5.97,3.22,8.09,3.77c1.75,0.55,3.31-1.1,2.76-2.85c-0.55-1.75-2.21-4.41-6.8-7.9c-0.28-0.18-0.64-0.46-0.92-0.74
	l-5.24-3.22l-1.1-0.64c-1.75-1.1-2.94-2.11-3.03-2.94c-0.09-1.19,1.84-2.11,5.7-1.29c1.84-1.01,4.32-0.92,6.43-0.46l0.09-0.28
	c0.37-0.18,3.31-1.56,7.63,0.83c1.75,0.92,3.68,2.48,5.79,4.96c0.55,0.64,1.01,1.19,1.47,1.84c0.37,0.46,0.64,0.83,1.01,1.29
	c0.64,0.83,1.29,1.65,1.84,2.57c0.09,0.18,0.28,0.37,0.37,0.55c2.67,3.77,5.24,7.44,8.92,10.84v0.09
	C115.12,63.56,113.74,66.96,111.72,69.81z"/>
<path class="st0" d="M67.43,84.97c-4.04-1.47-8.64-1.38-12.68,0.18c-4.69,1.84-8.45,5.61-10.38,10.2c-0.37,1.01-0.74,2.02-0.83,3.03
	c-0.92-1.84-1.84-3.77-2.85-5.7c-1.1-2.3-2.3-4.6-3.31-6.89c-0.46-1.01-0.83-2.02-1.19-3.12c-0.18-0.37-0.28-0.74-0.37-1.19
	c-0.37-1.01-0.64-2.11-0.83-3.12H34.8c-1.93-1.93-3.31-4.41-3.77-7.08c-0.18-1.01-0.18-2.11,0.18-3.03
	c0.64-1.29,2.11-2.11,3.58-2.11l0.37-0.37c0.64-0.92,1.84-1.38,2.94-1.38l1.1-0.18c0.09-0.09,0.28-0.18,0.37-0.18
	c0.92-0.46,1.93-0.74,2.94-0.74l0.74-0.18c-0.09-0.92,0.64-1.75,1.56-2.02c0.92-0.28,1.84,0,2.67,0.28c0.83,0.37,1.56,0.83,2.3,1.38
	c0,0-4.41-8.91-4.69-12.5c-0.09-0.74,0.09-1.29,0.37-1.47c1.19-0.64,3.4,1.1,5.61,3.77c2.57,3.03,5.15,7.26,6.8,10.66
	c2.11,4.5,4.5,11.03,6.98,16.63c0.46,1.1,0.92,2.11,1.38,3.03C66.78,83.68,67.06,84.33,67.43,84.97z"/>
<path class="st1" d="M49.41,61.08c0,0-3.49-8.91-1.56-9.93c1.47-0.92,8.55,9.28,8.55,8.82c0-0.46-8.09-12.31-10.75-11.3
	C42.98,49.68,49.41,61.08,49.41,61.08z"/>
<path class="st1" d="M32.5,74.12c-0.09-0.83-0.28-1.65-0.18-2.57c0-0.83,0.28-1.75,0.83-2.39c0.64-0.83,1.56-1.29,2.57-1.47
	c1.01-0.18,2.02-0.09,3.03,0c-0.55-0.55-1.29-1.1-2.02-1.29c-0.92-0.37-1.93-0.46-2.94-0.28c-1.01,0.18-1.84,0.83-2.39,1.65
	c-0.55,0.92-0.64,2.02-0.46,3.12C31.22,72.01,31.77,73.3,32.5,74.12z"/>
<path class="st1" d="M38.11,67.14c-0.09-0.37,0.09-0.83,0.37-1.1c0.28-0.28,0.74-0.46,1.1-0.46c0.46,0,0.83,0,1.29,0.09
	c0.28-0.37,0.83-0.92,1.19-1.1c1.1-0.55,2.48-0.37,3.68-0.09c-0.74-2.21,1.65-2.57,2.3-2.39c-0.64-0.37-1.38-0.64-2.11-0.64
	c-0.46,0-0.92,0.09-1.29,0.28c-0.37,0.28-0.64,0.74-0.55,1.1c-1.38,0.18-2.85,0.46-4.32,0.74c-0.18,0-0.46,0.09-0.64,0.18
	c-0.18,0.09-0.37,0.28-0.37,0.55c-0.83,0.09-1.56,0.18-2.39,0.46c-0.28,0.09-0.55,0.18-0.74,0.46c-0.18,0.28-0.09,0.55,0.09,0.83
	C36.55,66.41,37.28,66.68,38.11,67.14z"/>
<path class="st2" d="M67.43,84.97c-4.04-1.47-8.64-1.38-12.68,0.18c-4.69,1.84-8.45,5.61-10.38,10.2c-0.37,1.01-0.74,2.02-0.83,3.03
	c-0.92-1.84-1.84-3.77-2.85-5.7c-1.1-2.3-2.3-4.6-3.31-6.89c-0.46-1.01-0.83-2.02-1.19-3.12c-0.18-0.37-0.28-0.74-0.37-1.19
	c-0.37-1.01-0.64-2.11-0.83-3.12H34.8c-1.93-1.93-3.31-4.41-3.77-7.08c-0.18-1.01-0.18-2.11,0.18-3.03
	c0.64-1.29,2.11-2.11,3.58-2.11l0.37-0.37c0.64-0.92,1.84-1.38,2.94-1.38l1.1-0.18c0.09-0.09,0.28-0.18,0.37-0.18
	c0.92-0.46,1.93-0.74,2.94-0.74l0.74-0.18c-0.09-0.92,0.64-1.75,1.56-2.02c0.92-0.28,1.84,0,2.67,0.28c0.83,0.37,1.56,0.83,2.3,1.38
	c0,0-4.41-8.91-4.69-12.5c-0.09-0.74,0.09-1.29,0.37-1.47c1.19-0.64,3.4,1.1,5.61,3.77c2.57,3.03,5.15,7.26,6.8,10.66
	c2.11,4.5,4.5,11.03,6.98,16.63c0.46,1.1,0.92,2.11,1.38,3.03C66.78,83.68,67.06,84.33,67.43,84.97z"/>
<path class="st2" d="M99.13,76.61l-34.1,3.31"/>
<path class="st3" d="M81.76,23.67c-6.43,0.46-14.61,1.1-21.05,1.56c-0.09,0-0.09,0-0.18,0c-1.47,0-2.76-1.1-2.94-2.57
	c-0.18-1.56,0.92-2.85,2.48-2.94c6.34-0.46,14.61-1.1,20.95-1.56L81.76,23.67z"/>
<path class="st2" d="M36.08,82.7l-16.81,1.63c-3.03,0.28-5.7-1.93-6.25-4.96c-2.76-16.91-7.08-49.08-8.45-66.35
	c0-0.46,0-0.92,0-1.29C4.93,8.97,6.95,6.85,9.8,6.58c20.59-1.56,61.67-4.41,82.53-5.61c3.03-0.18,5.7,1.93,6.07,4.96l4.69,36.67
	l0.18,1.1l0.18,1.65l0.09,0.64"/>
<path class="st2" d="M97.94,79.92c1.29-0.09,2.39-0.64,3.22-1.38"/>
<path class="st2" d="M66.42,82.95l31.52-3.03"/>
<path class="st2" d="M6.22,61.44c1.28,9.65,2.1,14.8,3.2,21.5c0.46,3.03,3.1,5.24,6.21,4.96l21.64-2.11"/>
<path class="st2" d="M8.79,6.76c-6.25,1.19-8.09,7.35-7.9,9.83c0.74,8.82,3.12,28.12,4.78,40.71"/>
<path class="st2" d="M34.89,66.13c0.18,0,0.28,0,0.37,0c1.38,0.09,2.57,0.74,3.68,1.65c0.18,0.18,0.46,0.37,0.64,0.55"/>
<path class="st2" d="M38.2,64.47c0.28,0,0.55,0,0.83,0.09c0.09,0,0.09,0,0.18,0s0.18,0.09,0.28,0.09c1.19,0.28,2.3,1.01,3.31,1.65"
	/>
<path class="st2" d="M42.7,63.28c0.18,0,0.37,0,0.55,0h0.09c1.29,0.18,2.57,0.74,3.58,1.65"/>
<path class="st2" d="M51.07,63.92c-0.37-0.37-0.74-0.83-1.19-1.1"/>
<path class="st2" d="M33.15,69.25c0.28,1.38,0.55,2.76,0.83,4.14c0.37,1.65,0.64,3.31,1.1,4.96"/>
<path class="st5" d="M48.95,108.22c-1.93-3.22-3.68-6.53-5.42-9.83"/>
<path class="st2" d="M73.68,93.98c-2.67-3.12-4.5-5.88-5.61-7.81c-0.18-0.37-0.46-0.83-0.64-1.19"/>
<path class="st2" d="M48.95,108.22c0-1.47,0.37-2.85,0.92-4.14c1.84-4.6,5.7-8.36,10.38-10.2c4.32-1.65,9.19-1.56,13.51,0.09"/>
<path class="st2" d="M95.36,37.92c0,0-0.18-1.84,0.83-2.39c2.02-0.92,3.86,3.4,6.34,8.09c0.28,0.55,0.64,1.19,1.01,1.75
	c0.64,1.1,1.29,2.11,1.93,3.12"/>
<path class="st2" d="M87.74,37.37c0.55,0.09,1.1,0.28,1.65,0.46c2.48,0.92,5.51,2.94,7.9,4.87"/>
<path class="st2" d="M81.21,37.82c3.12,0.64,7.44,2.48,12.87,6.25"/>
<defs>
	<filter id="Adobe_OpacityMaskFilter" filterUnits="userSpaceOnUse" x="48.46" y="59.38" width="86.84" height="78.38">
		<feColorMatrix  type="matrix" values="1 0 0 0 0  0 1 0 0 0  0 0 1 0 0  0 0 0 1 0"/>
	</filter>
</defs>
<mask maskUnits="userSpaceOnUse" x="48.46" y="59.38" width="86.84" height="78.38" id="mask0_2_">
	<path class="st6" d="M54.38,14.76c-83.45,58.08-6.62,146.86,53.21,95.21l19.76-19.76c2.39-2.02-0.18-71.77,0.74-74.07
		c0-0.74-0.64-1.38-1.38-1.38H54.38L54.38,14.76z"/>
</mask>
<g class="st7">
	<path d="M128.08,67.88c16.36,6.34-2.3,30.6-2.3,30.6c-6.43-3.49-12.31-9.19-17.92-13.97c0.09-0.09,0.18-0.09,0.37-0.09
		c2.57-0.37,5.05-1.47,7.08-3.03s3.77-3.58,5.06-5.88c1.84-3.03,2.94-6.62,2.48-10.02C124.5,66.31,126.15,67.14,128.08,67.88z"/>
	<path d="M103.64,115.02l-12.41,22.24l-25-7.26c-5.7-5.24-10.29-11.21-14.61-17.64c-0.92-1.38-1.84-2.76-2.67-4.23
		c0-1.38,0.37-2.85,0.92-4.14c1.84-4.59,5.7-8.36,10.38-10.2c4.32-1.65,9.19-1.56,13.51,0.09
		C79.56,100.96,89.39,109.69,103.64,115.02z"/>
	<path class="st2" d="M73.68,93.98c5.88,6.98,15.81,15.72,29.96,21.05l-12.41,22.24l-25-7.26c-5.7-5.24-10.29-11.21-14.61-17.64
		c-0.92-1.38-1.84-2.76-2.67-4.23"/>
	<path class="st2" d="M99.87,77.34c0.46,0.37,0.83,0.83,1.29,1.19c2.21,2.02,4.41,4.04,6.71,5.97c5.61,4.78,10.84,8.82,17.92,13.97
		c0,0,18.66-24.35,2.3-30.6c-1.93-0.74-3.68-1.56-5.24-2.39c-3.31-1.75-5.88-3.58-8.09-5.61"/>
</g>
<path class="st5" d="M87.74,37.09C87.74,37.18,87.74,37.18,87.74,37.09"/>
<path class="st5" d="M122.88,65.75c0.46,3.39-0.73,6.86-2.47,9.71c-1.37,2.14-3.02,4.19-5.03,5.7c-2.01,1.52-4.48,2.58-7.04,2.94
	c-0.09-0.09-0.18,0-0.37,0.09"/>
<path class="st1" d="M42.53,54.06c1.21,0.43,2.17,1.5,2.3,2.81c0.08,0.85-0.16,1.57-0.64,2.16c-0.35,0.35-0.93,0.79-1.86,0.88
	l-0.08,0.01c-1.71,0.01-3.32-1.31-3.48-3c-0.08-0.77,0.16-1.57,0.65-2.09c0.35-0.35,0.93-0.79,1.86-0.88l0.08-0.01
	C41.74,53.9,42.13,53.94,42.53,54.06z"/>
<path class="st2" d="M42.25,59.84c-1.71,0.01-3.32-1.31-3.48-3c-0.08-0.77,0.16-1.57,0.65-2.09c0.35-0.35,0.93-0.79,1.86-0.88
	l0.08-0.01c0.38-0.04,0.79,0.08,1.19,0.19c1.21,0.43,2.17,1.5,2.3,2.81c0.08,0.85-0.16,1.57-0.64,2.16
	c-0.35,0.35-0.93,0.79-1.86,0.88C42.32,59.83,42.25,59.84,42.25,59.84z"/>
<path class="st1" d="M25.54,67.53c1.21,0.42,2.17,1.5,2.3,2.81c0.08,0.85-0.16,1.57-0.64,2.16c-0.35,0.35-0.93,0.79-1.86,0.88
	l-0.08,0.01c-1.71,0.01-3.32-1.31-3.48-3c-0.08-0.77,0.16-1.57,0.65-2.09c0.35-0.35,0.93-0.79,1.86-0.88l0.08-0.01
	C24.75,67.38,25.14,67.42,25.54,67.53z"/>
<path class="st2" d="M25.25,73.31c-1.71,0.01-3.32-1.31-3.48-3c-0.08-0.77,0.16-1.57,0.65-2.09c0.35-0.35,0.93-0.79,1.86-0.88
	l0.08-0.01c0.38-0.04,0.78,0.08,1.19,0.19c1.21,0.43,2.17,1.5,2.3,2.81c0.08,0.85-0.16,1.57-0.64,2.16
	c-0.35,0.35-0.93,0.79-1.86,0.88C25.33,73.31,25.25,73.31,25.25,73.31z"/>
<path class="st1" d="M65.47,62.19c1.21,0.43,2.17,1.5,2.3,2.81c0.08,0.85-0.16,1.57-0.64,2.16c-0.35,0.35-0.93,0.79-1.86,0.88
	l-0.08,0.01c-1.71,0.01-3.32-1.31-3.48-3c-0.08-0.77,0.16-1.57,0.65-2.09c0.35-0.35,0.93-0.79,1.86-0.88l0.08-0.01
	C64.68,62.04,65.07,62.08,65.47,62.19z"/>
<path class="st2" d="M65.18,67.98c-1.71,0.01-3.32-1.31-3.48-3c-0.08-0.77,0.16-1.57,0.65-2.09c0.35-0.35,0.93-0.79,1.86-0.88
	L64.28,62c0.38-0.04,0.79,0.08,1.19,0.19c1.21,0.43,2.17,1.5,2.3,2.81c0.08,0.85-0.16,1.57-0.64,2.16
	c-0.35,0.35-0.93,0.79-1.86,0.88C65.26,67.97,65.18,67.98,65.18,67.98z"/>
</svg>
