<?xml version="1.0" encoding="utf-8"?>
<!-- Generator: Adobe Illustrator 24.2.3, SVG Export Plug-In . SVG Version: 6.00 Build 0)  -->
<svg version="1.1" id="Layer_1" xmlns="http://www.w3.org/2000/svg" xmlns:xlink="http://www.w3.org/1999/xlink" x="0px" y="0px"
	 viewBox="0 0 124.31 128" style="enable-background:new 0 0 124.31 128;" xml:space="preserve">
<style type="text/css">
	.st0{fill:#E5BCDE;}
	.st1{fill:#FFFFFF;}
	.st2{fill:#E5BCDE;stroke:#FFFFFF;stroke-miterlimit:10;}
	.st3{fill:none;stroke:#000000;stroke-linecap:round;stroke-linejoin:round;stroke-miterlimit:10;}
	.st4{fill:none;stroke:#E5BCDE;stroke-linecap:round;stroke-linejoin:round;stroke-miterlimit:10;}
	.st5{fill:#E5BCDE;stroke:#000000;stroke-linecap:round;stroke-linejoin:round;stroke-miterlimit:10;}
	.st6{fill:none;stroke:#FFFFFF;stroke-linecap:round;stroke-linejoin:round;stroke-miterlimit:10;}
	.st7{stroke:#000000;stroke-linecap:round;stroke-linejoin:round;stroke-miterlimit:10;}
	.st8{fill:#B880FF;filter:url(#Adobe_OpacityMaskFilter);}
	.st9{mask:url(#mask0_2_);}
</style>
<path class="st0" d="M63.32,9.39l0,3.75c30.08-0.02,54.45,24.3,54.47,54.38l3.75,0c0.7,0,1.4,0.58,1.4,1.4
	c-0.68,31.72-26.29,57.37-58.01,58.1c-0.7,0-1.41-0.58-1.41-1.4l0-3.75C33.44,121.9,9.08,97.58,9.05,67.49l-3.75,0
	c-0.7,0-1.41-0.58-1.41-1.4C4.58,34.37,30.19,8.72,61.91,7.99C62.73,7.99,63.32,8.69,63.32,9.39z"/>
<path class="st1" d="M83.91,5.4c-0.59-0.12-1.17-0.12-1.64,0C75.84,6.46,69.4,7.64,62.96,8.69c-13.34,2.23-26.57,4.47-39.91,6.7
	c-4.1,0.71-8.19,1.41-12.41,2.12c-1.4,0.24-2.57,1.17-3.16,2.34c-0.35,0.59-0.47,1.29-0.47,1.99l0.13,11l0.39,53.84l1.64,1.29
	l0.35,0.23c0.82,0.58,1.76,0.82,2.81,0.58c0.35-0.12,0.7-0.23,1.17-0.24c2.11-0.47,4.21-1.06,6.32-1.64
	c0.82-0.23,1.64-0.47,2.46-0.59c7.02-1.76,14.28-3.64,21.42-5.52c3.98-1.06,8.07-2,11.94-3.05c1.99-0.47,3.98-0.94,5.97-1.41
	c-0.47-1.05-1.06-1.99-1.64-3.04c0,0,0,0,0-0.12l-28.09,7.63l-0.23,0.12c-0.82,0.23-1.76,0.24-2.69,0.12
	c-1.29-0.35-2.34-1.05-3.28-2.1l-2.46,0.7c-2.46,0.59-4.91,1.29-7.49,1.88c-0.82,0.23-1.64-0.47-1.64-1.29l-0.75-55.48
	c0-0.12,0-0.12,0-0.23c0.12-0.7,0.58-1.17,1.17-1.41l0.12,0c11.24-1.88,22.35-3.76,33.59-5.64c9.13-1.53,24.11-5.99,32.89-4.12
	l0.03,42.37l6.32,1.98l0-4.56l-0.03-40.97l0-2.46C87.31,7.62,85.9,5.87,83.91,5.4z"/>
<path class="st2" d="M79.94,7.86c-6.44,1.06-12.87,2.23-19.31,3.29c-13.34,2.23-26.57,4.47-39.91,6.7
	c-4.1,0.71-8.19,1.41-12.41,2.12c-0.35,0.12-0.7,0.12-1.05,0.35c0-0.12,0.12-0.23,0.12-0.35c0.58-1.29,1.75-2.11,3.16-2.34
	c4.1-0.71,8.31-1.41,12.41-2.12c13.34-2.23,26.57-4.47,39.91-6.7c6.44-1.06,12.87-2.12,19.31-3.29c0.59-0.12,1.05-0.12,1.64,0
	l0.12,0c1.87,0.47,3.4,2.1,3.4,4.33l0.04,47.99l-2.34-0.7l-0.04-44.95l0-1.99c0-1.52-1.41-2.81-2.93-2.57L79.94,7.86z"/>
<path class="st1" d="M72.48,54.45c-14.16,3.87-29.84,7.16-44.35,10.1c-0.94,0.23-1.76-0.47-1.87-1.29c-1.41-9.71-2-19.08-2.01-30.2
	c0-0.7,0.58-1.41,1.29-1.52c14.28-2.35,29.26-4.82,43.54-7.17c0.94-0.12,1.76,0.58,1.76,1.52c-0.23,8.9,0.83,17.79,2.6,26.69
	C73.77,53.4,73.3,54.22,72.48,54.45z"/>
<path class="st3" d="M11.7,6.98c0,1.87-1.52,3.4-3.27,3.4c-1.87,0-3.28-1.52-3.28-3.39c0-1.87,1.52-3.4,3.27-3.4
	C10.29,3.59,11.69,5.11,11.7,6.98z"/>
<path class="st4" d="M21.64,5.68c0,1.87-1.4,3.4-3.16,3.4c-1.76,0-3.16-1.52-3.16-3.39c0-1.87,1.52-3.4,3.27-3.4
	C20.24,2.29,21.64,3.81,21.64,5.68z"/>
<path class="st4" d="M31.36,4.39c0,1.87-1.4,3.28-3.16,3.28c-1.76,0-3.04-1.52-3.05-3.39c0-1.87,1.4-3.28,3.16-3.28
	C30.07,0.99,31.36,2.51,31.36,4.39z"/>
<path class="st3" d="M30.58,52.49c3.16,1.75,4.45,2.57,8.2,4.21c2.92-3.75,6.9-7.85,9.82-11.6c1.76,1.75,3.63,3.63,5.39,5.38
	c4.79-6.21,6.9-9.02,11.81-16.16"/>
<path class="st5" d="M48.48,46.86c0.91,0,1.64-0.79,1.64-1.76c0-0.97-0.74-1.76-1.64-1.75c-0.91,0-1.64,0.79-1.64,1.76
	C46.84,46.08,47.58,46.86,48.48,46.86z"/>
<path class="st5" d="M65.68,36.08c0.9,0,1.64-0.79,1.64-1.76c0-0.97-0.74-1.76-1.64-1.75c-0.9,0-1.64,0.79-1.64,1.76
	C64.04,35.3,64.77,36.08,65.68,36.08z"/>
<path class="st5" d="M30.58,54.25c0.9,0,1.64-0.79,1.64-1.76c0-0.97-0.74-1.76-1.64-1.75c-0.91,0-1.64,0.79-1.64,1.76
	C28.94,53.47,29.67,54.25,30.58,54.25z"/>
<path class="st6" d="M65.47,71.9c12.87-3.29,25.86-6.22,38.74-8.93"/>
<path class="st6" d="M68.87,79.04c9.95-2.58,19.89-5.17,29.72-7.63"/>
<path class="st6" d="M71.45,86.99c5.85-1.64,11.7-3.29,17.55-5.05"/>
<path class="st3" d="M87.35,57.72L87.31,9.73c0-2.11-1.52-3.86-3.4-4.33l-0.12,0"/>
<path class="st3" d="M9.07,88.1c0.82,0.7,1.99,1.05,3.04,0.82c15.68-3.88,33.59-8.69,49.27-12.45"/>
<path class="st5" d="M83.8,5.4c-0.47-0.12-1.05-0.12-1.64,0c-23.99,4.12-47.4,8-71.51,12.11c-1.4,0.24-2.57,1.17-3.16,2.34
	l-6.56-2.69c0.58-1.17,1.75-2.11,3.16-2.23c23.41-4,46.23-7.76,69.63-11.76c1.29-0.24,2.58-0.12,3.86,0.23L83.8,5.4z"/>
<path class="st7" d="M9.07,88.1l-5.86-4.56c-1.29-0.94-1.99-2.46-1.99-3.98L0.47,19.39c0-0.7,0.23-1.52,0.47-2.11l6.56,2.69
	c-0.35,0.59-0.47,1.29-0.47,1.99L7.9,85.52C7.9,86.57,8.37,87.51,9.07,88.1z"/>
<path class="st3" d="M83.8,5.4l0.12,0"/>
<path class="st3" d="M9.3,88.33L9.07,88.1"/>
<path class="st3" d="M81.26,55.5l-0.03-43.66c-11.12,1.88-22.12,3.76-33.12,5.64c-11.12,1.88-22.24,3.76-33.59,5.64
	c-0.82,0.12-1.29,0.82-1.29,1.64l0.75,55.48c0,0.94,0.82,1.52,1.64,1.29c2.46-0.59,4.92-1.29,7.49-1.88l2.46-0.7"/>
<path class="st7" d="M81.23,11.84l0.03,43.66c-0.35-0.35-0.7-0.7-1.05-1.05c-1.64-2.22-2.11-5.15-2.46-7.84
	c-1.3-11.35-2.01-22.47-1.43-33.94C77.95,12.43,79.59,12.19,81.23,11.84z"/>
<path class="st3" d="M64.88,62.18c-7.37,1.41-13.69,2.47-16.38,2.71"/>
<defs>
	<filter id="Adobe_OpacityMaskFilter" filterUnits="userSpaceOnUse" x="17.65" y="22.62" width="108.29" height="106.77">
		<feColorMatrix  type="matrix" values="1 0 0 0 0  0 1 0 0 0  0 0 1 0 0  0 0 0 1 0"/>
	</filter>
</defs>
<mask maskUnits="userSpaceOnUse" x="17.65" y="22.62" width="108.29" height="106.77" id="mask0_2_">
	<path class="st8" d="M63.32,9.39l0,3.75c30.08-0.02,54.45,24.3,54.47,54.38l3.75,0c0.7,0,1.4,0.58,1.4,1.4
		c-0.68,31.72-26.29,57.37-58.01,58.1c-0.7,0-1.41-0.58-1.41-1.4l0-3.75C33.44,121.9,9.08,97.58,9.05,67.49l-3.75,0
		c-0.7,0-1.41-0.58-1.41-1.4C4.58,34.37,30.19,8.72,61.91,7.99C62.73,7.99,63.32,8.69,63.32,9.39z"/>
</mask>
<g class="st9">
	<path class="st3" d="M81.79,126.43c-1.3-11-3.41-21.89-6.35-32.53c13.46-3.52,26.8-7.4,40.26-10.92c2,5.85,3.52,11.94,3.99,18.14"
		/>
	<path class="st3" d="M18.26,23.12c0.01,16.39-0.68,28.44,1.2,41.55c0.71,5.03,2.23,10.06,5.51,13.92c1.05,1.17,2.23,2.22,3.75,2.57
		c2.22,0.58,4.56-0.59,6.2-2.23c1.64-1.64,2.57-3.75,3.62-5.86c1.05-2.11,2.1-4.22,3.74-5.74c2.46-2.23,6.2-3.05,9.48-2
		c3.75,1.28,5.97,4.56,7.97,7.95c1.99,3.39,3.4,7.14,4.69,11c4.81,14.51,8.22,29.49,10.1,44.59"/>
	<path class="st3" d="M125.44,117.97c-2.35-15.1-4.6-37.92-13.5-55.24c-1.88-3.51-4.45-6.55-8.2-7.72c-1.76-0.58-3.51,0-5.15,0.47
		c0,0-14.28,2.82-28.67,5.64"/>
</g>
<path class="st3" d="M76.31,12.66c-0.69,11.35,0.13,22.59,1.43,33.94c0.35,2.81,0.71,5.73,2.46,7.84c1.87,2.34,5.39,3.74,8.31,3.04"
	/>
<path d="M59.74,73.31l-28.32,7.75c1.29-0.35,2.57-1.17,3.51-2.11c0.82-0.82,1.52-1.76,1.99-2.81c0.58-0.94,1.05-1.99,1.64-3.04
	c1.05-2.11,2.1-4.22,3.74-5.74c1.64-1.52,3.86-2.34,6.08-2.46c1.17,0,2.22,0.12,3.28,0.47C55.52,66.64,57.75,69.91,59.74,73.31
	C59.62,72.96,59.97,73.54,59.74,73.31z"/>
<path class="st3" d="M59.74,73.31l-28.32,7.75c1.29-0.35,2.57-1.17,3.51-2.11c0.82-0.82,1.52-1.76,1.99-2.81
	c0.58-0.94,1.05-1.99,1.64-3.04c1.05-2.11,2.1-4.22,3.74-5.74c1.64-1.52,3.86-2.34,6.08-2.46c1.17,0,2.22,0.12,3.28,0.47
	C55.52,66.64,57.75,69.91,59.74,73.31z M59.74,73.31"/>
</svg>
