<?xml version="1.0" encoding="utf-8"?>
<!-- Generator: Adobe Illustrator 24.2.3, SVG Export Plug-In . SVG Version: 6.00 Build 0)  -->
<svg version="1.1" xmlns="http://www.w3.org/2000/svg" xmlns:xlink="http://www.w3.org/1999/xlink" x="0px" y="0px"
	 viewBox="0 0 447.8 437.17" style="enable-background:new 0 0 447.8 437.17;" xml:space="preserve">
<style type="text/css">
	.st0{fill:#92278F;}
	.st1{opacity:0.7;fill:#FFFFFF;}
	.st2{fill:none;stroke:#263238;stroke-linecap:round;stroke-linejoin:round;stroke-miterlimit:10;}
	.st3{fill:#999999;stroke:#263238;stroke-linecap:round;stroke-linejoin:round;stroke-miterlimit:10;}
	.st4{fill:#263238;}
	.st5{fill:#BFBFBF;stroke:#263238;stroke-miterlimit:10;}
	.st6{fill:#FFFFFF;stroke:#263238;stroke-linecap:round;stroke-linejoin:round;stroke-miterlimit:10;}
	.st7{fill:#FFFFFF;}
	.st8{opacity:0.15;fill:#92278F;}
	.st9{opacity:0.3;fill:#92278F;}
	.st10{opacity:0.5;fill:#92278F;}
	.st11{opacity:0.7;}
	.st12{fill:none;stroke:#263238;stroke-miterlimit:10;}
	.st13{fill:none;}
	.st14{opacity:0.4;fill:#92278F;}
	.st15{opacity:0.4;fill:#92E3A9;}
</style>
<g id="Background_Simple">
	<path class="st0" d="M205.33,4.69C329.36-6.36,329.57,63.62,385.46,128.82c55.89,65.2,67.85,94.75,46.78,169.91
		c-21.07,75.15-92.06,134.07-179.89,100.69c-87.83-33.38-138.14-1.32-193.54-30.97c-55.4-29.64-75.97-86.91-35.42-154.41
		S52.39,18.31,205.33,4.69z"/>
	<path class="st1" d="M205.33,4.69C329.36-6.36,329.57,63.62,385.46,128.82c55.89,65.2,67.85,94.75,46.78,169.91
		c-21.07,75.15-92.06,134.07-179.89,100.69c-87.83-33.38-138.14-1.32-193.54-30.97c-55.4-29.64-75.97-86.91-35.42-154.41
		S52.39,18.31,205.33,4.69z"/>
</g>
<g id="World">
	<g>
		<g>
			<path class="st2" d="M277.86,148c-1.39,2.64-2.94,5.14-4.63,7.48c-9.11,12.67-22.33,21.14-36.81,24.53
				c-7.18,1.68-14.68,2.12-22.15,1.19c-7.36-0.91-14.68-3.15-21.63-6.81c-1.39-0.73-2.74-1.51-4.05-2.33
				c-1.31-0.81-2.57-1.66-3.79-2.56c-1.48-1.07-2.9-2.21-4.26-3.4c-0.01,0-0.01-0.01-0.02-0.02c-0.08-0.07-0.17-0.14-0.24-0.22
				c-0.02-0.02-0.03-0.02-0.03-0.02c-8-7.06-13.91-15.91-17.45-25.62c-1.45-3.98-2.51-8.11-3.13-12.33
				c-1.93-12.83,0.08-26.37,6.59-38.72c9.63-18.28,26.97-29.87,45.9-32.88c13-2.08,26.78-0.12,39.32,6.5
				c11.85,6.25,20.9,15.74,26.61,26.82C287.24,107.29,287.86,129.03,277.86,148z"/>
			<path class="st2" d="M278.08,89.6c-0.68,0.6-1.78,0.79-3.52,0.25c-6.25-1.93-9.5,5.09-8.4,5.17c1.1,0.07,1.86,3.24-0.38,4.76
				c-2.25,1.53-7.5,1.02-7.15,2.57c0.35,1.56,2.92,5.47,2.92,5.47s2.3-1.08,2.96,0.27c0.65,1.35,1.39,5-0.3,5.66
				c-1.68,0.67-1.32,2.5-1.32,2.5l-5.06-0.3c-0.81,3.73-0.81,3.73-0.81,3.73l-3.1,2.6l-1.67-0.88c0,0-1.46-3.81-2.87-1.51
				c-1.4,2.29-1.4,2.29-1.4,2.29l-0.9,2.06c0,0,3.63,0.81,4.54,2.39c0.9,1.58,0.9,1.58,0.9,1.58l7.88,2.22l0.62,2.26l1.46,0.77
				l0.37,3.94l2.94,1.54l2.94,0.23l3.59-4.97c0,0,1.55,3.06,1.9,4.34c0.35,1.29-0.67,4.5-0.67,4.5s-1.13,2.21-2.56,2.96
				c-1.43,0.74-3.17-1.23-3.05,1.18c0.12,2.41,0.12,2.41,0.12,2.41l-0.36,2.67l2.21,1.17l2.1,1.11l1.22,0.96"/>
			<path class="st2" d="M159.67,127.89l0.88,0.17l3.97-4.42l3.6-1.46c0,0,1.52,0.8,2.58,1.36c1.07,0.56,2.14-2.12,2.14-2.12
				s0,0-0.69-0.63c-0.69-0.63,0.31-4.34,0.31-4.34s4.37,0.61,5.96,0.42s2.33-0.13,3.04-1.47s0.17-1.62,0.17-1.62
				s1.16-3.48,1.16-5.21c0.01-1.73,2.58,1.36,2.58,1.36l1.26-2.39l2.83-2.24l3.68-2.56c0,0,5.35-1.54,5.77-0.38
				c0.41,1.15,2.58,2.1,2.58,2.1l-0.92,1.75c0,0-1.18,3.64-2.32,4.41c-1.15,0.76,0.46,6.34,0.46,6.34s-2.08,2-2.78,3.33
				c-0.7,1.33-1.38,1.32-1.38,1.32l-3.49-0.48c0,0-3.99-2.78-5.32-3.49c0,0-2.34,2.51-2.11,4c0.24,1.49-0.82,1.56-0.82,1.56
				l3.69,3.35l0.6,2.1l2.19,2.95l-0.71,1.35l-1.34,2.54l0.59,2.77l2.39,3.21l1.34,2.92l1.46,4.72l0.47,2.61l4.3,1.93l1.9-1.02l3.7-2
				l1.75,3.48l0.69,1.75l-3.08,2.79l1.09,2.27l0.36,2.57l-0.31,3.44l-0.63,2.2l2.57,1.35l4.56-0.66l-0.16-3.49
				c0,0,2.81-1.66,4.75-2.22c1.94-0.55,1.75-0.52,4.14-1.25c2.39-0.75,1.65-0.54,2.8-0.92c1.14-0.38,2.27-0.84,2.27-0.84l0.08-3.63
				l1.89-6.58c0,0,0,0,1.17,0.77c1.17,0.78,2.9-2.04,2.9-2.04l0.82-5.01l-2.31-1.22c0,0-2.15-0.45-4.17-0.49l-3.3-1.74l-2.75-4.86
				c0,0-1.33-1.38-2.29-3.25l1.27-2.4l1.56-2.96l1.63,0.86l1.5,0.79l1.59,0.84l2.6-1.69l1.45-4.06c0,0,0.66-0.6,1.96-1.77
				c1.3-1.18,2.21,0.98,2.21,0.98s0,0,2.14-2.69c2.15-2.68,0.37-1.44-0.73-2.82c-1.1-1.38-2.31-1.22-2.31-1.22l-3.91-4.67
				l-3.07,1.11c0,0,0,0-0.44,1.47c-0.43,1.48,0,0-4.51-1.77l-1.49-4.31l0.89-1.04l0.22-4.02c0,0-2.6-1.27-4.56-2.33
				c-1.97-1.07-2.42-3.77-2.42-3.77c-0.26-1.76,0.89-4.31,0.89-4.31l-1.04-2.84l-3.69-7.21l0.63-3.25l2.14-1.35l0.85-4.32
				l-3.86-3.66l1.55-2.94l1.1-2.09l1.29-2.44l0.96-4.95c0,0-0.24-0.91-0.48-1.94"/>
			<path class="st2" d="M180.54,166.1c-0.1-0.12-0.21-0.21-0.26-0.24c-0.02-0.02-0.03-0.02-0.03-0.02l1.12-2.12l-0.45-3.96
				l-1.47-0.77c0,0,1.79-1.78,1.68-3.2c-0.11-1.43,1.13-2.14,1.13-2.14l-0.48-2.64c0,0,0,0-0.8-0.42s-0.31-2.64-0.31-2.64
				l-3.42,0.67c0,0,0,0-0.93,3.6l-3.48,0.89c0,0-1.73-1.25-1.67-2.92c0.06-1.67,0.7-1.33,0.7-1.33l3.22-0.01l2-3.8l-0.4-1.82
				l-1.45-0.76"/>
			<path class="st2" d="M175.23,142.45l0.01,0.01c0.16,0.09-0.87-4.55-0.87-4.55s-1.28-3.4-2.68-3.97c-1.4-0.57-4.56,1.54-4.56,1.54
				l-3.53,0.5l-0.8,4.24"/>
			<path class="st2" d="M189.43,169.48l-0.84,2.58c-1.31-0.81-2.57-1.66-3.79-2.56l3.95-3.91l-0.33-4.27c0,0-0.73-1.58,0.67-1.27
				s2.35-0.21,3.18-1.13c0.82-0.93,0.72-1.33,2.84-0.21c2.13,1.12,2.26,1.87,2.57,2.72c0.31,0.85-3.65,6.93-3.65,6.93l1.4,0.74
				c0,0-0.82,1.9,0.57,2.32L189.43,169.48z"/>
			<path class="st2" d="M236.42,180.01c-7.18,1.68-14.68,2.12-22.15,1.19l0.77-2.78c0,0-0.72-1.21,2.21-0.95
				c2.93,0.25,5.16,0.56,5.16,0.56l2.33-4.42l4.09,0l1.33,0.7l1.15,1.68l2.48,2.4C233.8,178.4,235.24,179.18,236.42,180.01z"/>
			<path class="st2" d="M234.39,137.85l2.45-0.78l2.15,2.17c0,0,4.25,0.55,2.6,2.4c-1.66,1.85-4.83,1.83-4.83,1.83l-1.15,2.18
				l-2.02-2.43l-1.02-1.95l0.76-1.44L234.39,137.85z"/>
			<path class="st2" d="M237.92,128.56c0,0-0.93,1.12-1.08,2.06c-0.16,0.94-0.16,0.94-0.16,0.94l-4-2.11l2.17-4.13L237.92,128.56z"
				/>
		</g>
		<g>
			<path class="st2" d="M371.5,41.72c0,3.82-3.1,6.92-6.92,6.92c-3.82,0-6.92-3.1-6.92-6.92c0-3.82,3.1-6.92,6.92-6.92
				C368.4,34.8,371.5,37.9,371.5,41.72z"/>
			<path class="st2" d="M332.35,150.72c0,2.41-1.96,4.37-4.37,4.37c-2.41,0-4.37-1.96-4.37-4.37c0-2.41,1.96-4.37,4.37-4.37
				C330.39,146.35,332.35,148.31,332.35,150.72z"/>
			<path class="st2" d="M206.81,12.2c0,2.41-1.96,4.37-4.37,4.37s-4.37-1.96-4.37-4.37c0-2.41,1.96-4.37,4.37-4.37
				S206.81,9.79,206.81,12.2z"/>
			<circle class="st2" cx="434.54" cy="144.23" r="10.86"/>
			<circle class="st2" cx="61.09" cy="36.39" r="6.69"/>
			<circle class="st2" cx="26.35" cy="171.58" r="11.68"/>
			<circle class="st2" cx="130.05" cy="91.96" r="3.37"/>
			<path class="st2" d="M205.99,41.79c0.27,2.28,0.55,4.57,0.82,6.85"/>
			<path class="st2" d="M203.44,20.54c0.69,5.71,1.37,11.42,2.06,17.14"/>
			<path class="st2" d="M290.86,78.4c-1.85,0.83-3.7,1.65-5.57,2.45"/>
			<path class="st2" d="M329.56,59.13c-11.2,5.79-22.36,11.67-33.78,17.01"/>
			<path class="st2" d="M346.2,50.69c-4.19,2.06-8.35,4.17-12.5,6.3"/>
			<path class="st2" d="M353.74,47.07c-1.16,0.54-2.33,1.1-3.48,1.65"/>
			<path class="st2" d="M303.94,129.93c-4.11-0.49-8.23-0.98-12.34-1.49"/>
			<path class="st2" d="M363.68,136.6c-18.31-2.01-36.63-4.05-54.93-6.11"/>
			<path class="st2" d="M419.09,142.53c-16.88-1.75-33.76-3.56-50.63-5.4"/>
			<path class="st2" d="M310.65,144.67c-7.4-2.3-15.02-4-22.21-6.94"/>
			<path class="st2" d="M320.45,148.25c-1.68-0.74-3.39-1.4-5.12-2.02"/>
			<path class="st2" d="M137.09,93.84c6.46,1.73,12.91,3.46,19.37,5.19"/>
			<path class="st2" d="M128.14,71.93c10.39,5.78,20.83,11.47,31.53,16.66"/>
			<path class="st2" d="M80.64,46.42c14.82,7.17,29.15,15.26,43.52,23.29"/>
			<path class="st2" d="M72.18,42.26c1.21,0.58,2.42,1.17,3.63,1.77"/>
			<path class="st2" d="M149.39,145.15c1.58-0.36,3.17-0.73,4.75-1.1"/>
			<path class="st2" d="M74.03,161.2c23.49-5.2,46.98-10.43,70.61-14.97"/>
			<path class="st2" d="M42.8,168.04c9.06-1.95,18.12-3.94,27.17-5.94"/>
		</g>
	</g>
</g>
<g id="Device">
	<path class="st3" d="M367.7,344.93c-73.21,0-219.63,0-291.29,0c-9.83,0-39.11-4.15-39.11-4.15h369.51
		C406.82,340.77,377.54,344.93,367.7,344.93z"/>
	<path class="st4" d="M367.7,330.08H76.42V156.21c0-2,1.62-3.62,3.62-3.62h284.05c2,0,3.62,1.62,3.62,3.62V330.08z"/>
	<path class="st5" d="M406.82,340.77H37.3c-1.38,0-1.59-1.99-0.24-2.28l39.35-8.41H367.7l39.35,8.41
		C408.41,338.78,408.2,340.77,406.82,340.77z"/>
	<rect x="79.64" y="160.37" class="st6" width="284.84" height="157.85"/>
	<path class="st7" d="M228.35,325.08h-12.57c-0.8,0-1.45-0.65-1.45-1.45l0,0c0-0.8,0.65-1.45,1.45-1.45h12.57
		c0.8,0,1.45,0.65,1.45,1.45l0,0C229.8,324.43,229.15,325.08,228.35,325.08z"/>
	<path class="st7" d="M224.14,156.3c0,1.15-0.93,2.08-2.08,2.08c-1.15,0-2.08-0.93-2.08-2.08c0-1.15,0.93-2.08,2.08-2.08
		C223.21,154.22,224.14,155.15,224.14,156.3z"/>
	<polygon class="st2" points="383.9,335.43 60.22,335.43 77.22,331.43 366.9,331.43 	"/>
	<path class="st8" d="M258.84,161.55c0,0-65.52,88.81-176.96,76.75v-76.75H258.84z"/>
	<path class="st9" d="M81.88,300.65c0,0,17.31-43.85,108.43-57.69c91.12-13.85,162.44-50.34,171.92-71.7v143.43H81.88V300.65z"/>
	<rect x="81.88" y="161.55" class="st10" width="280.35" height="5.44"/>
	<g>
		<line class="st2" x1="81.88" y1="166.99" x2="362.24" y2="166.99"/>
		<line class="st2" x1="85.73" y1="164.15" x2="93.86" y2="164.15"/>
		<line class="st2" x1="102.75" y1="164.15" x2="110.07" y2="164.15"/>
		<line class="st2" x1="119.55" y1="164.15" x2="126.68" y2="164.15"/>
	</g>
	<g class="st11">
		<path class="st0" d="M128.45,299.03h-9.02c-1.22,0-2.22,1-2.22,2.22v9.02c0,1.22,1,2.22,2.22,2.22h9.02c1.22,0,2.22-1,2.22-2.22
			v-9.02C130.67,300.03,129.67,299.03,128.45,299.03z"/>
		<path class="st0" d="M148.07,299.03h-9.02c-1.22,0-2.22,1-2.22,2.22v9.02c0,1.22,1,2.22,2.22,2.22h9.02c1.22,0,2.22-1,2.22-2.22
			v-9.02C150.29,300.03,149.29,299.03,148.07,299.03z"/>
		<path class="st0" d="M167.7,299.03h-9.02c-1.22,0-2.22,1-2.22,2.22v9.02c0,1.22,1,2.22,2.22,2.22h9.02c1.22,0,2.22-1,2.22-2.22
			v-9.02C169.91,300.03,168.92,299.03,167.7,299.03z"/>
		<path class="st0" d="M187.32,299.03h-9.02c-1.22,0-2.22,1-2.22,2.22v9.02c0,1.22,1,2.22,2.22,2.22h9.02c1.22,0,2.22-1,2.22-2.22
			v-9.02C189.54,300.03,188.54,299.03,187.32,299.03z"/>
		<path class="st0" d="M206.94,299.03h-9.02c-1.22,0-2.22,1-2.22,2.22v9.02c0,1.22,1,2.22,2.22,2.22h9.02c1.22,0,2.22-1,2.22-2.22
			v-9.02C209.16,300.03,208.16,299.03,206.94,299.03z"/>
		<path class="st0" d="M226.57,299.03h-9.02c-1.22,0-2.22,1-2.22,2.22v9.02c0,1.22,1,2.22,2.22,2.22h9.02c1.22,0,2.22-1,2.22-2.22
			v-9.02C228.79,300.03,227.79,299.03,226.57,299.03z"/>
		<path class="st0" d="M246.19,299.03h-9.02c-1.22,0-2.22,1-2.22,2.22v9.02c0,1.22,1,2.22,2.22,2.22h9.02c1.22,0,2.22-1,2.22-2.22
			v-9.02C248.41,300.03,247.41,299.03,246.19,299.03z"/>
		<path class="st0" d="M265.82,299.03h-9.02c-1.22,0-2.22,1-2.22,2.22v9.02c0,1.22,1,2.22,2.22,2.22h9.02c1.22,0,2.22-1,2.22-2.22
			v-9.02C268.03,300.03,267.04,299.03,265.82,299.03z"/>
		<path class="st0" d="M285.44,299.03h-9.02c-1.22,0-2.22,1-2.22,2.22v9.02c0,1.22,1,2.22,2.22,2.22h9.02c1.22,0,2.22-1,2.22-2.22
			v-9.02C287.66,300.03,286.66,299.03,285.44,299.03z"/>
		<path class="st0" d="M305.06,299.03h-9.02c-1.22,0-2.22,1-2.22,2.22v9.02c0,1.22,1,2.22,2.22,2.22h9.02c1.22,0,2.22-1,2.22-2.22
			v-9.02C307.28,300.03,306.28,299.03,305.06,299.03z"/>
		<path class="st0" d="M324.69,299.03h-9.02c-1.22,0-2.22,1-2.22,2.22v9.02c0,1.22,1,2.22,2.22,2.22h9.02c1.22,0,2.22-1,2.22-2.22
			v-9.02C326.91,300.03,325.91,299.03,324.69,299.03z"/>
	</g>
	<path class="st10" d="M339.75,314.68v-5.65c0-1.25-1.01-2.26-2.26-2.26h-10.59v3.49c0,1.22-1,2.22-2.22,2.22h-9.02
		c-1.22,0-2.22-1-2.22-2.22v-3.49h-6.17v3.49c0,1.22-1,2.22-2.22,2.22h-9.02c-1.22,0-2.22-1-2.22-2.22v-3.49h-6.17v3.49
		c0,1.22-1,2.22-2.22,2.22h-9.02c-1.22,0-2.22-1-2.22-2.22v-3.49h-6.17v3.49c0,1.22-1,2.22-2.22,2.22h-9.02
		c-1.22,0-2.22-1-2.22-2.22v-3.49h-6.17v3.49c0,1.22-1,2.22-2.22,2.22h-9.02c-1.22,0-2.22-1-2.22-2.22v-3.49h-6.17v3.49
		c0,1.22-1,2.22-2.22,2.22h-9.02c-1.22,0-2.22-1-2.22-2.22v-3.49h-6.17v3.49c0,1.22-1,2.22-2.22,2.22h-9.02
		c-1.22,0-2.22-1-2.22-2.22v-3.49h-6.17v3.49c0,1.22-1,2.22-2.22,2.22h-9.02c-1.22,0-2.22-1-2.22-2.22v-3.49h-6.17v3.49
		c0,1.22-1,2.22-2.22,2.22h-9.02c-1.22,0-2.22-1-2.22-2.22v-3.49h-6.17v3.49c0,1.22-1,2.22-2.22,2.22h-9.02
		c-1.22,0-2.22-1-2.22-2.22v-3.49h-6.17v3.49c0,1.22-1,2.22-2.22,2.22h-9.02c-1.22,0-2.22-1-2.22-2.22v-3.49h-10.59
		c-1.25,0-2.26,1.01-2.26,2.26v5.65"/>
	<path class="st2" d="M339.75,314.68v-5.65c0-1.25-1.01-2.26-2.26-2.26h-10.59v3.49c0,1.22-1,2.22-2.22,2.22h-9.02
		c-1.22,0-2.22-1-2.22-2.22v-3.49h-6.17v3.49c0,1.22-1,2.22-2.22,2.22h-9.02c-1.22,0-2.22-1-2.22-2.22v-3.49h-6.17v3.49
		c0,1.22-1,2.22-2.22,2.22h-9.02c-1.22,0-2.22-1-2.22-2.22v-3.49h-6.17v3.49c0,1.22-1,2.22-2.22,2.22h-9.02
		c-1.22,0-2.22-1-2.22-2.22v-3.49h-6.17v3.49c0,1.22-1,2.22-2.22,2.22h-9.02c-1.22,0-2.22-1-2.22-2.22v-3.49h-6.17v3.49
		c0,1.22-1,2.22-2.22,2.22h-9.02c-1.22,0-2.22-1-2.22-2.22v-3.49h-6.17v3.49c0,1.22-1,2.22-2.22,2.22h-9.02
		c-1.22,0-2.22-1-2.22-2.22v-3.49h-6.17v3.49c0,1.22-1,2.22-2.22,2.22h-9.02c-1.22,0-2.22-1-2.22-2.22v-3.49h-6.17v3.49
		c0,1.22-1,2.22-2.22,2.22h-9.02c-1.22,0-2.22-1-2.22-2.22v-3.49h-6.17v3.49c0,1.22-1,2.22-2.22,2.22h-9.02
		c-1.22,0-2.22-1-2.22-2.22v-3.49h-6.17v3.49c0,1.22-1,2.22-2.22,2.22h-9.02c-1.22,0-2.22-1-2.22-2.22v-3.49h-10.59
		c-1.25,0-2.26,1.01-2.26,2.26v5.65"/>
	<g>
		<path class="st12" d="M128.45,299.03h-9.02c-1.22,0-2.22,1-2.22,2.22v9.02c0,1.22,1,2.22,2.22,2.22h9.02c1.22,0,2.22-1,2.22-2.22
			v-9.02C130.67,300.03,129.67,299.03,128.45,299.03z"/>
		<path class="st12" d="M148.07,299.03h-9.02c-1.22,0-2.22,1-2.22,2.22v9.02c0,1.22,1,2.22,2.22,2.22h9.02c1.22,0,2.22-1,2.22-2.22
			v-9.02C150.29,300.03,149.29,299.03,148.07,299.03z"/>
		<path class="st12" d="M167.7,299.03h-9.02c-1.22,0-2.22,1-2.22,2.22v9.02c0,1.22,1,2.22,2.22,2.22h9.02c1.22,0,2.22-1,2.22-2.22
			v-9.02C169.91,300.03,168.92,299.03,167.7,299.03z"/>
		<path class="st12" d="M187.32,299.03h-9.02c-1.22,0-2.22,1-2.22,2.22v9.02c0,1.22,1,2.22,2.22,2.22h9.02c1.22,0,2.22-1,2.22-2.22
			v-9.02C189.54,300.03,188.54,299.03,187.32,299.03z"/>
		<path class="st12" d="M206.94,299.03h-9.02c-1.22,0-2.22,1-2.22,2.22v9.02c0,1.22,1,2.22,2.22,2.22h9.02c1.22,0,2.22-1,2.22-2.22
			v-9.02C209.16,300.03,208.16,299.03,206.94,299.03z"/>
		<path class="st12" d="M226.57,299.03h-9.02c-1.22,0-2.22,1-2.22,2.22v9.02c0,1.22,1,2.22,2.22,2.22h9.02c1.22,0,2.22-1,2.22-2.22
			v-9.02C228.79,300.03,227.79,299.03,226.57,299.03z"/>
		<path class="st12" d="M246.19,299.03h-9.02c-1.22,0-2.22,1-2.22,2.22v9.02c0,1.22,1,2.22,2.22,2.22h9.02c1.22,0,2.22-1,2.22-2.22
			v-9.02C248.41,300.03,247.41,299.03,246.19,299.03z"/>
		<path class="st12" d="M265.82,299.03h-9.02c-1.22,0-2.22,1-2.22,2.22v9.02c0,1.22,1,2.22,2.22,2.22h9.02c1.22,0,2.22-1,2.22-2.22
			v-9.02C268.03,300.03,267.04,299.03,265.82,299.03z"/>
		<path class="st12" d="M285.44,299.03h-9.02c-1.22,0-2.22,1-2.22,2.22v9.02c0,1.22,1,2.22,2.22,2.22h9.02c1.22,0,2.22-1,2.22-2.22
			v-9.02C287.66,300.03,286.66,299.03,285.44,299.03z"/>
		<path class="st12" d="M305.06,299.03h-9.02c-1.22,0-2.22,1-2.22,2.22v9.02c0,1.22,1,2.22,2.22,2.22h9.02c1.22,0,2.22-1,2.22-2.22
			v-9.02C307.28,300.03,306.28,299.03,305.06,299.03z"/>
		<path class="st12" d="M324.69,299.03h-9.02c-1.22,0-2.22,1-2.22,2.22v9.02c0,1.22,1,2.22,2.22,2.22h9.02c1.22,0,2.22-1,2.22-2.22
			v-9.02C326.91,300.03,325.91,299.03,324.69,299.03z"/>
	</g>
	<g>
		<path class="st7" d="M294.09,238.69H150.03c-5.59,0-10.12-4.53-10.12-10.12l0,0c0-5.59,4.53-10.12,10.12-10.12h144.06
			c5.59,0,10.12,4.53,10.12,10.12l0,0C304.21,234.16,299.68,238.69,294.09,238.69z"/>
		<path class="st2" d="M294.09,238.69H150.03c-5.59,0-10.12-4.53-10.12-10.12l0,0c0-5.59,4.53-10.12,10.12-10.12h144.06
			c5.59,0,10.12,4.53,10.12,10.12l0,0C304.21,234.16,299.68,238.69,294.09,238.69z"/>
		<g>
			<path class="st4" d="M153.39,228.11h-0.03l-0.66,6.31h-2.56l-1.32-11.84h1.81l0.98,9.34h0.03l0.88-9.34h1.79l0.91,9.41h0.03
				l0.95-9.41h1.62l-1.32,11.84h-2.47L153.39,228.11z"/>
			<path class="st4" d="M162.92,228.11h-0.03l-0.66,6.31h-2.56l-1.32-11.84h1.81l0.98,9.34h0.03l0.88-9.34h1.79l0.91,9.41h0.03
				l0.95-9.41h1.62l-1.32,11.84h-2.47L162.92,228.11z"/>
			<path class="st4" d="M172.44,228.11h-0.03l-0.66,6.31h-2.56l-1.32-11.84h1.81l0.98,9.34h0.03l0.88-9.34h1.79l0.91,9.41h0.03
				l0.95-9.41h1.62l-1.32,11.84h-2.47L172.44,228.11z"/>
			<path class="st4" d="M178.94,232.62v1.79h-1.79v-1.79H178.94z"/>
			<path class="st4" d="M180.3,222.57h2.94c1.86,0,2.78,1.03,2.78,2.93v5.99c0,1.9-0.91,2.93-2.78,2.93h-2.94V222.57z
				 M182.16,224.26v8.46h1.05c0.59,0,0.95-0.3,0.95-1.15v-6.16c0-0.85-0.36-1.15-0.95-1.15H182.16z"/>
			<path class="st4" d="M187.05,225.41c0-1.89,1-2.98,2.83-2.98c1.83,0,2.83,1.08,2.83,2.98v6.16c0,1.9-1,2.98-2.83,2.98
				c-1.83,0-2.83-1.08-2.83-2.98V225.41z M188.91,231.69c0,0.85,0.37,1.17,0.96,1.17s0.96-0.32,0.96-1.17v-6.4
				c0-0.85-0.37-1.17-0.96-1.17s-0.96,0.32-0.96,1.17V231.69z"/>
			<path class="st4" d="M197.83,230.98h0.03l1.25-8.41h2.59v11.84h-1.76v-8.5h-0.03l-1.25,8.5h-1.76l-1.35-8.38h-0.03v8.38h-1.62
				v-11.84h2.59L197.83,230.98z"/>
			<path class="st4" d="M209.09,234.42h-1.88l-0.32-2.15h-2.28l-0.32,2.15h-1.71l1.9-11.84h2.72L209.09,234.42z M204.84,230.66h1.79
				l-0.88-5.99h-0.03L204.84,230.66z"/>
			<path class="st4" d="M209.95,222.57h1.86v11.84h-1.86V222.57z"/>
			<path class="st4" d="M214.86,225.84h-0.03v8.58h-1.68v-11.84h2.34l1.88,7.09h0.03v-7.09h1.66v11.84h-1.91L214.86,225.84z"/>
			<path class="st4" d="M222.08,225.84h-0.03v8.58h-1.68v-11.84h2.33l1.88,7.09h0.03v-7.09h1.66v11.84h-1.91L222.08,225.84z"/>
			<path class="st4" d="M233.64,234.42h-1.88l-0.32-2.15h-2.28l-0.32,2.15h-1.71l1.89-11.84h2.72L233.64,234.42z M229.4,230.66h1.79
				l-0.88-5.99h-0.03L229.4,230.66z"/>
			<path class="st4" d="M238.43,230.98h0.03l1.25-8.41h2.59v11.84h-1.76v-8.5h-0.03l-1.25,8.5h-1.76l-1.35-8.38h-0.03v8.38h-1.62
				v-11.84h2.59L238.43,230.98z"/>
			<path class="st4" d="M245.52,227.56h2.56v1.69h-2.56v3.47h3.22v1.69h-5.08v-11.84h5.08v1.69h-3.22V227.56z"/>
			<path class="st4" d="M252.4,222.44c1.81,0,2.74,1.08,2.74,2.98v0.37h-1.76v-0.49c0-0.85-0.34-1.17-0.93-1.17
				c-0.59,0-0.93,0.32-0.93,1.17c0,0.86,0.37,1.51,1.59,2.57c1.56,1.37,2.05,2.35,2.05,3.71c0,1.9-0.95,2.98-2.78,2.98
				c-1.83,0-2.77-1.08-2.77-2.98v-0.73h1.76v0.85c0,0.85,0.37,1.15,0.96,1.15c0.59,0,0.96-0.3,0.96-1.15c0-0.86-0.37-1.51-1.59-2.57
				c-1.56-1.37-2.05-2.35-2.05-3.71C249.66,223.52,250.59,222.44,252.4,222.44z"/>
			<path class="st4" d="M257.93,232.62v1.79h-1.79v-1.79H257.93z"/>
			<path class="st4" d="M264.51,230v1.57c0,1.9-0.95,2.98-2.78,2.98c-1.83,0-2.78-1.08-2.78-2.98v-6.16c0-1.89,0.95-2.98,2.78-2.98
				c1.83,0,2.78,1.08,2.78,2.98v1.15h-1.76v-1.27c0-0.85-0.37-1.17-0.96-1.17c-0.59,0-0.96,0.32-0.96,1.17v6.4
				c0,0.85,0.37,1.15,0.96,1.15c0.59,0,0.96-0.3,0.96-1.15V230H264.51z"/>
			<path class="st4" d="M265.5,225.41c0-1.89,1-2.98,2.83-2.98c1.83,0,2.83,1.08,2.83,2.98v6.16c0,1.9-1,2.98-2.83,2.98
				c-1.83,0-2.83-1.08-2.83-2.98V225.41z M267.36,231.69c0,0.85,0.37,1.17,0.96,1.17c0.59,0,0.96-0.32,0.96-1.17v-6.4
				c0-0.85-0.37-1.17-0.96-1.17c-0.59,0-0.96,0.32-0.96,1.17V231.69z"/>
			<path class="st4" d="M276.28,230.98h0.03l1.25-8.41h2.59v11.84h-1.76v-8.5h-0.03l-1.25,8.5h-1.76l-1.35-8.38h-0.03v8.38h-1.62
				v-11.84h2.59L276.28,230.98z"/>
		</g>
		<g>
			<path class="st13" d="M294.16,228.57c0.29-0.48,0.44-1.03,0.44-1.6c0-0.84-0.32-1.64-0.92-2.23c-0.6-0.6-1.39-0.93-2.23-0.93
				c-0.85,0-1.64,0.33-2.24,0.93c-0.59,0.59-0.92,1.39-0.92,2.23s0.33,1.64,0.92,2.23c1.01,1.01,2.64,1.17,3.84,0.47
				c0.23-0.12,0.44-0.28,0.63-0.47C293.87,229.01,294.04,228.8,294.16,228.57z"/>
			<path class="st4" d="M298.35,232.46l-3.34-3.34c0.96-1.6,0.76-3.71-0.62-5.09c-0.79-0.79-1.83-1.22-2.94-1.22
				c-1.11,0-2.16,0.43-2.94,1.22c-0.79,0.78-1.22,1.83-1.22,2.94s0.43,2.15,1.22,2.94c0.78,0.79,1.83,1.22,2.94,1.22
				c0.77,0,1.5-0.21,2.14-0.6l3.34,3.34c0.2,0.19,0.45,0.29,0.71,0.29c0.26,0,0.51-0.1,0.71-0.29
				C298.74,233.48,298.74,232.85,298.35,232.46z M293.05,229.67c-1.2,0.7-2.83,0.54-3.84-0.47c-0.59-0.59-0.92-1.39-0.92-2.23
				s0.33-1.64,0.92-2.23c0.6-0.6,1.39-0.93,2.24-0.93c0.84,0,1.63,0.33,2.23,0.93c0.6,0.59,0.92,1.39,0.92,2.23
				c0,0.57-0.15,1.12-0.44,1.6c-0.12,0.23-0.29,0.44-0.48,0.63C293.49,229.39,293.28,229.55,293.05,229.67z"/>
		</g>
	</g>
</g>
<g id="Left_hand">
	<path class="st7" d="M208.26,364.12c-0.77-3.86-1.35-5.01-7.71-6.56c-5.23-1.27-10.59,0.07-12.32,0.59
		c-0.37,0.11-0.58,0.18-0.58,0.18s-1.56-5.39-2.71-6.84c-1.16-1.44-6.55-15.9-7.12-17.25c-0.23-0.55-1.2-1.51-2.53-2.45
		c-1.89-1.35-4.51-2.66-6.74-2.67h-0.15c-3.82,0.07-17.77-0.88-17.77-0.88s-2.12-3.92-3.85-5.37c-1.73-1.44-8.29-3.08-10.21-2.69
		c-0.18,0.04-0.41,0.12-0.67,0.24c0,0-0.01,0.01-0.02,0.01c-2.58,1.19-8.56,5.91-8.56,5.91s-0.21-0.25-0.55-0.58
		c-0.62-0.59-1.66-1.44-2.54-1.44c-1.22,0-6.39-1.5-8.5-0.42c-0.22,0.11-0.41,0.25-0.56,0.42c-0.9,1.06-4.95,5.38-8.7,9.1
		c-2.68,2.66-5.21,5.02-6.33,5.68c-2.7,1.59-7.34,2.34-10.02,3.13c-2.68,0.8-10.98,8.97-10.98,8.97c-7.13,1.41-32.1,2.92-48.69,3.79
		c-8.91,0.48-25.41,2.77-25.41,2.77l25.92,77.47c0,0,2.07-0.73,5.49-1.91c15.04-5.25,56.22-19.49,62.34-20.35
		c7.52-1.06,11.57-4.72,17.16-5.37c5.6-0.64,10.59-1.46,18.85,0c8.26,1.46,20.65-3.98,30.01-6.1c9.36-2.12,13.27-9.22,15.12-12.64
		c1.84-3.43,4.62-5.66,9.63-7.98c5.01-2.32,6.75-4.82,10.22-6.94c3.21-1.96,8.38-5.38,8.54-8.93
		C208.34,364.71,208.32,364.42,208.26,364.12z M175.29,364.16c0,0-1.05,0.5-1.64-0.06c-0.6-0.56-3.54-1.77-3.54-1.77
		c0.57-1.55-0.44-3.51-1.24-5.12c-0.79-1.62-1.78-4.75-1.78-4.75s3.59,5.1,4.65,5.87c1.06,0.78,1.57,0.87,1.57,0.87
		s0.69,3.29,1.94,4.9C175.26,364.12,175.27,364.14,175.29,364.16z"/>
	<path class="st14" d="M30.45,354.99c16.59-0.87,41.56-2.38,48.69-3.79c0,0,8.3-8.17,10.98-8.97c2.68-0.79,7.32-1.54,10.02-3.13
		c1.12-0.66,3.65-3.02,6.33-5.68c-3.07,4.62-6.99,10.18-9.38,12.33c-4.4,3.97-5.89,0-5.89,0C86.17,354.55,42.91,355.04,30.45,354.99
		z"/>
	<path class="st14" d="M115.73,323.9c2.11-1.08,7.28,0.42,8.5,0.42c0.88,0,1.92,0.85,2.54,1.44c-1.41,1.19-2.35,2.1-2.35,2.1
		s-2.5-1.52-5.56-3.53C117.92,323.71,116.81,323.66,115.73,323.9z"/>
	<path class="st14" d="M135.9,320.42c0.26-0.12,0.49-0.2,0.67-0.24c1.92-0.39,8.48,1.25,10.21,2.69c1.73,1.45,3.85,5.37,3.85,5.37
		s13.95,0.95,17.77,0.88h0.15c1.43,5.35-5.8,7.63-5.8,7.63s-1.76-7.88-8.78-8.29c-7.02-0.42-9.36,1.32-9.36,1.32
		c-0.13-6.47-2.47-7.44-6.7-9.19C137.33,320.35,136.64,320.31,135.9,320.42z"/>
	<path class="st14" d="M167.09,352.46c0,0,0.99,3.13,1.78,4.75c0.8,1.61,1.81,3.57,1.24,5.12c0,0,2.94,1.21,3.54,1.77
		c-2.22-1.16-6.56-3.19-6.56-3.19c1.38-3.16-2.17-14.93-2.17-14.93s5.93-1.03,10.37-4.7c2.66-2.2,1.42-6.44,0-9.49
		c1.33,0.94,2.3,1.9,2.53,2.45c0.57,1.35,5.96,15.81,7.12,17.25c1.15,1.45,2.71,6.84,2.71,6.84s0.21-0.07,0.58-0.18
		c-3.96,2.17-9.95,5.31-12.98,5.95c-1.25-1.61-1.94-4.9-1.94-4.9s-0.51-0.09-1.57-0.87C170.68,357.56,167.09,352.46,167.09,352.46z"
		/>
	<path class="st14" d="M204.35,362.63c1.73,0.58,3.01,1.43,3.97,2.38c-0.16,3.55-5.33,6.97-8.54,8.93
		c-3.47,2.12-5.21,4.62-10.22,6.94c-5.01,2.32-7.79,4.55-9.63,7.98c-1.85,3.42-5.76,10.52-15.12,12.64
		c-9.36,2.12-21.75,7.56-30.01,6.1c-8.26-1.46-13.25-0.64-18.85,0c-5.59,0.65-9.64,4.31-17.16,5.37
		c-6.12,0.86-47.3,15.1-62.34,20.35c15.04-16.15,63.17-31.45,70.18-30.62c7.65,0.92,20.57-2.23,26.11-3.32
		c5.54-1.08,6.46-3.39,6.46-3.39c0,1.84-1.97,4.23-1.97,4.23s1.45,1.31,3.29,2.36c1.85,1.06,25.45-4.88,29.59-8.44
		c4.13-3.56,9.84-10.68,11.95-12.3c2.11-1.61,13.88-5.06,15.56-8.28c1.68-3.22-2.11-9.88-2.9-10.93
		C193.93,361.57,196.96,360.12,204.35,362.63z"/>
	<path class="st15" d="M211.07,372.42v-1.02C211.11,372.03,211.07,372.42,211.07,372.42z"/>
	<g>
		<path class="st2" d="M5.04,357.76c0,0,63.14-4.39,74.1-6.55c0,0,8.31-8.17,10.98-8.97c2.68-0.8,7.32-1.55,10.02-3.13
			c2.7-1.58,13.49-12.96,15.03-14.79c1.54-1.83,7.71,0,9.06,0c1.35,0,3.08,2.03,3.08,2.03s7.32-5.78,9.25-6.17
			c1.93-0.39,8.48,1.26,10.21,2.7c1.73,1.44,3.85,5.36,3.85,5.36s13.94,0.96,17.76,0.88c3.82-0.08,8.86,3.78,9.43,5.13
			c0.56,1.35,5.96,15.81,7.12,17.25c1.16,1.44,2.71,6.84,2.71,6.84s6.54-2.31,12.9-0.77c6.36,1.54,6.94,2.7,7.71,6.55
			c0.77,3.85-5.01,7.71-8.48,9.83c-3.47,2.12-5.2,4.62-10.21,6.94c-5.01,2.32-7.79,4.55-9.64,7.97
			c-1.85,3.42-5.76,10.53-15.12,12.65c-9.36,2.12-21.75,7.56-30.01,6.1c-8.26-1.46-13.25-0.65-18.85,0
			c-5.6,0.65-9.64,4.31-17.16,5.37c-7.52,1.06-67.84,22.26-67.84,22.26"/>
		<path class="st2" d="M150.63,328.24c-4.11,0.03-7.32,2.3-7.32,2.3"/>
		<path class="st2" d="M158.97,330.54c2.56,1.18,4.51,8.57,4.51,8.57"/>
		<path class="st2" d="M166.05,348.12c0,0,1.41,7,2.82,9.09c1.42,2.09,1.22,4.62,1.22,4.62"/>
		<path class="st2" d="M166.05,360.46c0,0,5.46,2.35,7.26,3.68c1.8,1.33,7.61-3.29,14.34-5.8"/>
		<path class="st2" d="M166.63,350.68c0,0,1.35-1.11,4.24-1.69c2.89-0.58,5.32-4.91,5.98-7.71"/>
		<path class="st2" d="M175.29,364.17c-1.27-1.59-1.98-4.96-1.98-4.96s-0.51-0.1-1.57-0.87c-1.06-0.77-4.65-5.87-4.65-5.87"/>
		<path class="st2" d="M173.31,359.21c0,0,4.98,0.48,7.96-1.93"/>
		<path class="st2" d="M127.31,326.35c0,0-2.22,1.65-5.78,3.04"/>
		<path class="st2" d="M115.8,323.86c3.23-0.3,5.73,2.1,6.11,2.49"/>
		<path class="st2" d="M136.56,320.18c0,0,5.59,1.54,6.75,3.08c1.16,1.54,1.16,3.08,1.16,3.08"/>
		<path class="st2" d="M79.13,351.21c0,0,5.1,0,8.14-1.93"/>
		<path class="st2" d="M115.95,407.61c0,0,10.98-3.4,15.41-4.17c4.43-0.77,6.55-4.05,6.55-4.05"/>
		<path class="st2" d="M194.19,366.05c0,0,2.84,3.7,1.93,7.52"/>
		<path class="st2" d="M175.29,369.8c0,0,4.47,2.6,5.99,8.96"/>
		<path class="st2" d="M127.31,331.66c0,0-10.39,11.22-16.28,14.32"/>
		<path class="st2" d="M144.47,334.82c0,0-10.79,11.37-15.22,13.3"/>
	</g>
</g>
<g id="Right_hand">
	<path class="st7" d="M235.8,325.01c0.16,3.55,5.33,6.97,8.54,8.93c3.47,2.12,5.21,4.62,10.22,6.94s7.79,4.55,9.63,7.98
		c1.85,3.42,5.76,10.52,15.12,12.64c9.36,2.12,21.75,7.56,30.01,6.1c8.26-1.46,13.25-0.64,18.85,0c5.59,0.65,9.64,4.31,17.16,5.37
		c6.12,0.86,47.3,15.1,62.34,20.35c3.42,1.18,5.49,1.91,5.49,1.91l25.92-77.47c0,0-6.5-0.29-15.41-0.77
		c-16.59-0.87-51.56-4.38-58.69-5.79c0,0-8.3-8.17-10.98-8.97c-2.68-0.79-7.32-1.54-10.02-3.13c-1.12-0.66-3.65-3.02-6.33-5.68
		c-3.75-3.72-7.8-8.04-8.7-9.1c-0.15-0.17-0.34-0.31-0.56-0.42c-2.11-1.08-7.28,0.42-8.5,0.42c-0.88,0-1.92,0.85-2.54,1.44
		c-0.34,0.33-0.55,0.58-0.55,0.58s-5.98-4.72-8.56-5.91c-0.01,0-0.02-0.01-0.02-0.01c-0.26-0.12-0.49-0.2-0.67-0.24
		c-1.92-0.39-8.48,1.25-10.21,2.69c-1.73,1.45-3.85,5.37-3.85,5.37s-13.95,0.95-17.77,0.88h-0.15c-2.23,0.01-4.85,1.32-6.74,2.67
		c-1.33,0.94-2.3,1.9-2.53,2.45c-0.57,1.35-5.96,15.81-7.12,17.25c-1.15,1.45-2.71,6.84-2.71,6.84s-0.21-0.07-0.58-0.18
		c-1.73-0.52-7.09-1.86-12.32-0.59c-6.36,1.55-6.94,2.7-7.71,6.56C235.8,324.42,235.78,324.71,235.8,325.01z M268.87,324.1
		c1.25-1.61,1.94-4.9,1.94-4.9s0.51-0.09,1.57-0.87c1.06-0.77,4.65-5.87,4.65-5.87s-0.99,3.13-1.78,4.75
		c-0.8,1.61-1.81,3.57-1.24,5.12c0,0-2.94,1.21-3.54,1.77c-0.59,0.56-1.64,0.06-1.64,0.06C268.85,324.14,268.86,324.12,268.87,324.1
		z"/>
	<path class="st14" d="M423.67,316.99c-16.59-0.87-51.56-4.38-58.69-5.79c0,0-8.3-8.17-10.98-8.97c-2.68-0.79-7.32-1.54-10.02-3.13
		c-1.12-0.66-3.65-3.02-6.33-5.68c3.07,4.62,6.99,10.18,9.38,12.33c4.4,3.97,5.89,0,5.89,0
		C357.95,314.55,411.21,317.04,423.67,316.99z"/>
	<path class="st14" d="M328.39,283.9c-2.11-1.08-7.28,0.42-8.5,0.42c-0.88,0-1.92,0.85-2.54,1.44c1.41,1.19,2.35,2.1,2.35,2.1
		s2.5-1.52,5.56-3.53C326.2,283.71,327.31,283.66,328.39,283.9z"/>
	<path class="st14" d="M308.22,280.42c-0.26-0.12-0.49-0.2-0.67-0.24c-1.92-0.39-8.48,1.25-10.21,2.69
		c-1.73,1.45-3.85,5.37-3.85,5.37s-13.95,0.95-17.77,0.88h-0.15c-1.43,5.35,5.8,7.63,5.8,7.63s1.76-7.88,8.78-8.29
		c7.02-0.42,9.36,1.32,9.36,1.32c0.13-6.47,2.47-7.44,6.7-9.19C306.79,280.35,307.48,280.31,308.22,280.42z"/>
	<path class="st14" d="M277.03,312.46c0,0-0.99,3.13-1.78,4.75c-0.8,1.61-1.81,3.57-1.24,5.12c0,0-2.94,1.21-3.54,1.77
		c2.22-1.16,6.56-3.19,6.56-3.19c-1.38-3.16,2.17-14.93,2.17-14.93s-5.93-1.03-10.37-4.7c-2.66-2.2-1.42-6.44,0-9.49
		c-1.33,0.94-2.3,1.9-2.53,2.45c-0.57,1.35-5.96,15.81-7.12,17.25c-1.15,1.45-2.71,6.84-2.71,6.84s-0.21-0.07-0.58-0.18
		c3.96,2.17,9.95,5.31,12.98,5.95c1.25-1.61,1.94-4.9,1.94-4.9s0.51-0.09,1.57-0.87C273.44,317.56,277.03,312.46,277.03,312.46z"/>
	<path class="st14" d="M239.77,322.63c-1.73,0.58-3.01,1.43-3.97,2.38c0.16,3.55,5.33,6.97,8.54,8.93
		c3.47,2.12,5.21,4.62,10.22,6.94s7.79,4.55,9.63,7.98c1.85,3.42,5.76,10.52,15.12,12.64c9.36,2.12,21.75,7.56,30.01,6.1
		c8.26-1.46,13.25-0.64,18.85,0c5.59,0.65,9.64,4.31,17.16,5.37c6.12,0.86,47.3,15.1,62.34,20.35
		c-15.04-16.15-63.17-31.45-70.18-30.62c-7.65,0.92-20.57-2.23-26.11-3.32c-5.54-1.08-6.46-3.39-6.46-3.39
		c0,1.84,1.97,4.23,1.97,4.23s-1.45,1.31-3.29,2.36c-1.85,1.06-25.45-4.88-29.59-8.44c-4.13-3.56-9.84-10.68-11.95-12.3
		c-2.11-1.61-13.88-5.06-15.56-8.28c-1.68-3.22,2.11-9.88,2.9-10.93C250.19,321.57,247.16,320.12,239.77,322.63z"/>
	<path class="st15" d="M233.05,332.42v-1.02C233.01,332.03,233.05,332.42,233.05,332.42z"/>
	<g>
		<path class="st2" d="M439.09,317.76c0,0-63.14-4.39-74.1-6.55c0,0-8.31-8.17-10.99-8.97c-2.68-0.8-7.32-1.55-10.02-3.13
			c-2.7-1.58-13.49-12.96-15.03-14.79c-1.54-1.83-7.71,0-9.06,0c-1.35,0-3.08,2.03-3.08,2.03s-7.32-5.78-9.25-6.17
			c-1.93-0.39-8.48,1.26-10.21,2.7c-1.73,1.44-3.85,5.36-3.85,5.36s-13.94,0.96-17.76,0.88c-3.82-0.08-8.86,3.78-9.43,5.13
			c-0.56,1.35-5.96,15.81-7.12,17.25c-1.16,1.44-2.71,6.84-2.71,6.84s-6.54-2.31-12.9-0.77c-6.36,1.54-6.94,2.7-7.71,6.55
			c-0.77,3.85,5.01,7.71,8.48,9.83c3.47,2.12,5.2,4.62,10.21,6.94c5.01,2.32,7.79,4.55,9.64,7.97c1.85,3.42,5.76,10.53,15.12,12.65
			c9.36,2.12,21.75,7.56,30.01,6.1c8.26-1.46,13.25-0.65,18.85,0c5.6,0.65,9.64,4.31,17.16,5.37c7.52,1.06,67.84,22.26,67.84,22.26"
			/>
		<path class="st2" d="M293.49,288.24c4.11,0.03,7.32,2.3,7.32,2.3"/>
		<path class="st2" d="M285.15,290.54c-2.56,1.18-4.51,8.57-4.51,8.57"/>
		<path class="st2" d="M278.07,308.12c0,0-1.41,7-2.82,9.09c-1.42,2.09-1.22,4.62-1.22,4.62"/>
		<path class="st2" d="M278.07,320.46c0,0-5.46,2.35-7.26,3.68c-1.8,1.33-7.61-3.29-14.34-5.8"/>
		<path class="st2" d="M277.5,310.68c0,0-1.35-1.11-4.24-1.69c-2.89-0.58-5.32-4.91-5.98-7.71"/>
		<path class="st2" d="M268.83,324.17c1.27-1.59,1.98-4.96,1.98-4.96s0.51-0.1,1.57-0.87c1.06-0.77,4.65-5.87,4.65-5.87"/>
		<path class="st2" d="M270.81,319.21c0,0-4.98,0.48-7.96-1.93"/>
		<path class="st2" d="M316.81,286.35c0,0,2.22,1.65,5.78,3.04"/>
		<path class="st2" d="M328.32,283.86c-3.23-0.3-5.73,2.1-6.11,2.49"/>
		<path class="st2" d="M307.56,280.18c0,0-5.59,1.54-6.75,3.08c-1.16,1.54-1.16,3.08-1.16,3.08"/>
		<path class="st2" d="M364.99,311.21c0,0-5.1,0-8.14-1.93"/>
		<path class="st2" d="M328.17,367.61c0,0-10.98-3.4-15.41-4.17c-4.43-0.77-6.55-4.05-6.55-4.05"/>
		<path class="st2" d="M249.93,326.05c0,0-2.84,3.7-1.93,7.52"/>
		<path class="st2" d="M268.83,329.8c0,0-4.47,2.6-5.99,8.96"/>
		<path class="st2" d="M316.81,291.66c0,0,10.39,11.22,16.28,14.32"/>
		<path class="st2" d="M299.66,294.82c0,0,10.79,11.37,15.22,13.3"/>
	</g>
</g>
</svg>
